<mxfile host="app.diagrams.net" agent="Mozilla/5.0 (X11; Linux x86_64) AppleWebKit/537.36 (KHTML, like Gecko) Chrome/137.0.0.0 Safari/537.36 Edg/137.0.0.0" version="27.2.0" pages="6">
  <diagram name="Page-1" id="tNXC0VitfZMmvyYUYRqM">
    <mxGraphModel grid="1" page="1" gridSize="10" guides="1" tooltips="1" connect="1" arrows="1" fold="1" pageScale="1" pageWidth="850" pageHeight="1100" math="0" shadow="0">
      <root>
        <mxCell id="0" />
        <mxCell id="1" parent="0" />
        <mxCell id="f6suJqI1a6MxbD2vkENO-15" style="edgeStyle=orthogonalEdgeStyle;rounded=0;orthogonalLoop=1;jettySize=auto;html=1;exitX=0.5;exitY=1;exitDx=0;exitDy=0;entryX=0.5;entryY=0;entryDx=0;entryDy=0;strokeColor=#6C8EBF;" parent="1" source="f6suJqI1a6MxbD2vkENO-3" target="f6suJqI1a6MxbD2vkENO-4" edge="1">
          <mxGeometry relative="1" as="geometry" />
        </mxCell>
        <mxCell id="f6suJqI1a6MxbD2vkENO-3" value="&lt;div&gt;Records identified and titles screened:​&lt;/div&gt;&lt;div&gt;&lt;b&gt;N = 410​&lt;/b&gt;&lt;/div&gt;" style="rounded=0;whiteSpace=wrap;html=1;strokeColor=#6C8EBF;" parent="1" vertex="1">
          <mxGeometry x="106.87" y="150" width="120" height="60" as="geometry" />
        </mxCell>
        <mxCell id="f6suJqI1a6MxbD2vkENO-16" style="edgeStyle=orthogonalEdgeStyle;rounded=0;orthogonalLoop=1;jettySize=auto;html=1;exitX=0.5;exitY=1;exitDx=0;exitDy=0;entryX=0.5;entryY=0;entryDx=0;entryDy=0;strokeColor=#6C8EBF;" parent="1" source="f6suJqI1a6MxbD2vkENO-4" target="f6suJqI1a6MxbD2vkENO-5" edge="1">
          <mxGeometry relative="1" as="geometry" />
        </mxCell>
        <mxCell id="f6suJqI1a6MxbD2vkENO-4" value="&lt;div&gt;Records after duplicate removal:​&lt;/div&gt;&lt;div&gt;&lt;b&gt;N = 153​&lt;/b&gt;&lt;/div&gt;" style="rounded=0;whiteSpace=wrap;html=1;strokeColor=#6C8EBF;" parent="1" vertex="1">
          <mxGeometry x="106.87" y="240" width="120" height="60" as="geometry" />
        </mxCell>
        <mxCell id="f6suJqI1a6MxbD2vkENO-17" style="edgeStyle=orthogonalEdgeStyle;rounded=0;orthogonalLoop=1;jettySize=auto;html=1;exitX=0.5;exitY=1;exitDx=0;exitDy=0;entryX=0.5;entryY=0;entryDx=0;entryDy=0;strokeColor=#6C8EBF;" parent="1" source="f6suJqI1a6MxbD2vkENO-5" target="f6suJqI1a6MxbD2vkENO-6" edge="1">
          <mxGeometry relative="1" as="geometry" />
        </mxCell>
        <mxCell id="f6suJqI1a6MxbD2vkENO-19" style="edgeStyle=orthogonalEdgeStyle;rounded=0;orthogonalLoop=1;jettySize=auto;html=1;exitX=1;exitY=0.5;exitDx=0;exitDy=0;entryX=0;entryY=0.5;entryDx=0;entryDy=0;strokeColor=#6C8EBF;" parent="1" source="f6suJqI1a6MxbD2vkENO-5" target="f6suJqI1a6MxbD2vkENO-8" edge="1">
          <mxGeometry relative="1" as="geometry" />
        </mxCell>
        <mxCell id="f6suJqI1a6MxbD2vkENO-5" value="&lt;div&gt;Abstract screened:​&lt;/div&gt;&lt;div&gt;&lt;b&gt;N = 135​&lt;/b&gt;&lt;/div&gt;" style="rounded=0;whiteSpace=wrap;html=1;strokeColor=#6C8EBF;" parent="1" vertex="1">
          <mxGeometry x="106.87" y="330" width="120" height="60" as="geometry" />
        </mxCell>
        <mxCell id="f6suJqI1a6MxbD2vkENO-18" style="edgeStyle=orthogonalEdgeStyle;rounded=0;orthogonalLoop=1;jettySize=auto;html=1;exitX=0.5;exitY=1;exitDx=0;exitDy=0;entryX=0.5;entryY=0;entryDx=0;entryDy=0;strokeColor=#6C8EBF;" parent="1" source="f6suJqI1a6MxbD2vkENO-6" target="f6suJqI1a6MxbD2vkENO-7" edge="1">
          <mxGeometry relative="1" as="geometry" />
        </mxCell>
        <mxCell id="f6suJqI1a6MxbD2vkENO-20" style="edgeStyle=orthogonalEdgeStyle;rounded=0;orthogonalLoop=1;jettySize=auto;html=1;exitX=1;exitY=0.5;exitDx=0;exitDy=0;entryX=0;entryY=0.5;entryDx=0;entryDy=0;strokeColor=#6C8EBF;" parent="1" source="f6suJqI1a6MxbD2vkENO-6" target="f6suJqI1a6MxbD2vkENO-9" edge="1">
          <mxGeometry relative="1" as="geometry" />
        </mxCell>
        <mxCell id="f6suJqI1a6MxbD2vkENO-6" value="&lt;div&gt;Full-text screened:​&lt;/div&gt;&lt;div&gt;&lt;b&gt;N = 56​&lt;/b&gt;&lt;/div&gt;" style="rounded=0;whiteSpace=wrap;html=1;strokeColor=#6C8EBF;" parent="1" vertex="1">
          <mxGeometry x="106.87" y="420" width="120" height="60" as="geometry" />
        </mxCell>
        <mxCell id="f6suJqI1a6MxbD2vkENO-7" value="&lt;div&gt;Studies included:​&lt;/div&gt;&lt;div&gt;&lt;b&gt;N = 28​&lt;/b&gt;&lt;/div&gt;" style="rounded=0;whiteSpace=wrap;html=1;strokeColor=#6C8EBF;" parent="1" vertex="1">
          <mxGeometry x="106.87" y="510" width="120" height="60" as="geometry" />
        </mxCell>
        <mxCell id="f6suJqI1a6MxbD2vkENO-8" value="&lt;div&gt;Articles excluded:​&lt;/div&gt;&lt;div&gt;&lt;b&gt;N = 270​&lt;/b&gt;&lt;/div&gt;" style="rounded=0;whiteSpace=wrap;html=1;strokeColor=#6C8EBF;" parent="1" vertex="1">
          <mxGeometry x="266.87" y="330" width="120" height="60" as="geometry" />
        </mxCell>
        <mxCell id="f6suJqI1a6MxbD2vkENO-9" value="&lt;div&gt;Articles excluded:​&lt;/div&gt;&lt;div&gt;&lt;b&gt;N = 28&lt;/b&gt;&lt;/div&gt;" style="rounded=0;whiteSpace=wrap;html=1;strokeColor=#6C8EBF;" parent="1" vertex="1">
          <mxGeometry x="266.87" y="420" width="120" height="60" as="geometry" />
        </mxCell>
        <mxCell id="f6suJqI1a6MxbD2vkENO-12" value="Eligibility​" style="rounded=1;whiteSpace=wrap;html=1;rotation=-90;fillColor=#dae8fc;strokeColor=#6c8ebf;fontColor=#3F5170;fontStyle=1" parent="1" vertex="1">
          <mxGeometry x="24.370000000000005" y="427.5" width="80" height="45" as="geometry" />
        </mxCell>
        <mxCell id="f6suJqI1a6MxbD2vkENO-13" value="Included​" style="rounded=1;whiteSpace=wrap;html=1;rotation=-90;fillColor=#dae8fc;strokeColor=#6c8ebf;fontColor=#3F5170;fontStyle=1" parent="1" vertex="1">
          <mxGeometry x="24.370000000000005" y="517.5" width="80" height="45" as="geometry" />
        </mxCell>
        <mxCell id="f6suJqI1a6MxbD2vkENO-21" value="Identification" style="rounded=1;whiteSpace=wrap;html=1;rotation=-90;fillColor=#dae8fc;strokeColor=#6c8ebf;fontColor=#3F5170;fontStyle=1" parent="1" vertex="1">
          <mxGeometry x="24.370000000000005" y="157.5" width="80" height="45" as="geometry" />
        </mxCell>
        <mxCell id="f6suJqI1a6MxbD2vkENO-22" value="Screening​" style="rounded=1;whiteSpace=wrap;html=1;rotation=-90;fillColor=#dae8fc;strokeColor=#6c8ebf;fontColor=#3F5170;fontStyle=1" parent="1" vertex="1">
          <mxGeometry x="-20" y="293.13" width="168.75" height="45" as="geometry" />
        </mxCell>
        <mxCell id="1OZCNvETFTJvXwrTFymP-1" value="&lt;div&gt;Articles excluded:​&lt;/div&gt;&lt;div&gt;&lt;b&gt;N = 270​&lt;/b&gt;&lt;/div&gt;" style="rounded=0;whiteSpace=wrap;html=1;strokeColor=#6C8EBF;" vertex="1" parent="1">
          <mxGeometry x="266.87" y="240" width="120" height="60" as="geometry" />
        </mxCell>
      </root>
    </mxGraphModel>
  </diagram>
  <diagram id="2TJ260nG1G4sc_6SRmww" name="Page-2">
    <mxGraphModel grid="1" page="1" gridSize="10" guides="1" tooltips="1" connect="1" arrows="1" fold="1" pageScale="1" pageWidth="850" pageHeight="1100" math="0" shadow="0">
      <root>
        <mxCell id="0" />
        <mxCell id="1" parent="0" />
        <mxCell id="C-HNoc81GrbhAyczoTG7-14" value="Eligibility​" style="rounded=1;whiteSpace=wrap;html=1;rotation=-90;fillColor=#dae8fc;strokeColor=#6c8ebf;fontColor=#3F5170;fontStyle=1" vertex="1" parent="1">
          <mxGeometry x="41.57" y="559.22" width="115.62" height="45" as="geometry" />
        </mxCell>
        <mxCell id="C-HNoc81GrbhAyczoTG7-15" value="Included​" style="rounded=1;whiteSpace=wrap;html=1;rotation=-90;fillColor=#dae8fc;strokeColor=#6c8ebf;fontColor=#3F5170;fontStyle=1" vertex="1" parent="1">
          <mxGeometry x="39.68" y="689.19" width="119.37" height="45" as="geometry" />
        </mxCell>
        <mxCell id="C-HNoc81GrbhAyczoTG7-16" value="Identification" style="rounded=1;whiteSpace=wrap;html=1;rotation=-90;fillColor=#dae8fc;strokeColor=#6c8ebf;fontColor=#3F5170;fontStyle=1" vertex="1" parent="1">
          <mxGeometry x="36.64" y="166.32" width="125.47" height="45" as="geometry" />
        </mxCell>
        <mxCell id="C-HNoc81GrbhAyczoTG7-17" value="Screening​" style="rounded=1;whiteSpace=wrap;html=1;rotation=-90;fillColor=#dae8fc;strokeColor=#6c8ebf;fontColor=#3F5170;fontStyle=1" vertex="1" parent="1">
          <mxGeometry x="-25.86" y="364.47" width="250.47" height="45" as="geometry" />
        </mxCell>
        <mxCell id="R98RhcQYHC6nBrZnyMuS-3" style="edgeStyle=orthogonalEdgeStyle;rounded=0;orthogonalLoop=1;jettySize=auto;html=1;exitX=0.5;exitY=1;exitDx=0;exitDy=0;entryX=0.5;entryY=0;entryDx=0;entryDy=0;" edge="1" parent="1" source="C-HNoc81GrbhAyczoTG7-19" target="yEqpSXXkdBYhzi_phy77-3">
          <mxGeometry relative="1" as="geometry" />
        </mxCell>
        <mxCell id="R98RhcQYHC6nBrZnyMuS-8" style="edgeStyle=orthogonalEdgeStyle;rounded=0;orthogonalLoop=1;jettySize=auto;html=1;exitX=1;exitY=0.5;exitDx=0;exitDy=0;entryX=0;entryY=0.5;entryDx=0;entryDy=0;" edge="1" parent="1" source="C-HNoc81GrbhAyczoTG7-19" target="yEqpSXXkdBYhzi_phy77-10">
          <mxGeometry relative="1" as="geometry" />
        </mxCell>
        <mxCell id="C-HNoc81GrbhAyczoTG7-19" value="&lt;span style=&quot;background-color: transparent; color: light-dark(rgb(0, 0, 0), rgb(255, 255, 255));&quot;&gt;Records after duplicate removal:​&lt;/span&gt;&lt;br&gt;&lt;blockquote style=&quot;margin: 0 0 0 40px; border: none; padding: 0px;&quot;&gt;&lt;b style=&quot;background-color: transparent; color: light-dark(rgb(0, 0, 0), rgb(255, 255, 255));&quot;&gt;Round Zero = 60&lt;br&gt;&lt;/b&gt;&lt;b style=&quot;background-color: transparent; color: light-dark(rgb(0, 0, 0), rgb(255, 255, 255));&quot;&gt;Round One&amp;nbsp; = ​19&lt;/b&gt;&lt;div style=&quot;&quot;&gt;&lt;b&gt;Round Two&amp;nbsp; = 74&lt;/b&gt;&lt;/div&gt;&lt;/blockquote&gt;" style="rounded=0;whiteSpace=wrap;html=1;strokeColor=#6C8EBF;align=left;spacingLeft=12;" vertex="1" parent="1">
          <mxGeometry x="150" y="270.63" width="178.13" height="99.37" as="geometry" />
        </mxCell>
        <mxCell id="R98RhcQYHC6nBrZnyMuS-2" style="edgeStyle=orthogonalEdgeStyle;rounded=0;orthogonalLoop=1;jettySize=auto;html=1;exitX=0.5;exitY=1;exitDx=0;exitDy=0;entryX=0.5;entryY=0;entryDx=0;entryDy=0;" edge="1" parent="1" source="yEqpSXXkdBYhzi_phy77-2" target="C-HNoc81GrbhAyczoTG7-19">
          <mxGeometry relative="1" as="geometry" />
        </mxCell>
        <mxCell id="yEqpSXXkdBYhzi_phy77-2" value="&lt;span style=&quot;background-color: transparent; color: light-dark(rgb(0, 0, 0), rgb(255, 255, 255));&quot;&gt;Records identified and titles screened:​&lt;/span&gt;&lt;br&gt;&lt;blockquote style=&quot;margin: 0 0 0 40px; border: none; padding: 0px;&quot;&gt;&lt;b style=&quot;background-color: transparent; color: light-dark(rgb(0, 0, 0), rgb(255, 255, 255));&quot;&gt;Round Zero = 200&lt;br&gt;&lt;/b&gt;&lt;b style=&quot;background-color: transparent; color: light-dark(rgb(0, 0, 0), rgb(255, 255, 255));&quot;&gt;Round One&amp;nbsp; = ​37&lt;/b&gt;&lt;div style=&quot;&quot;&gt;&lt;b&gt;Round Two&amp;nbsp; = 173&lt;/b&gt;&lt;/div&gt;&lt;/blockquote&gt;" style="rounded=0;whiteSpace=wrap;html=1;strokeColor=#6C8EBF;align=left;spacingLeft=12;" vertex="1" parent="1">
          <mxGeometry x="150" y="140" width="178.13" height="99.37" as="geometry" />
        </mxCell>
        <mxCell id="R98RhcQYHC6nBrZnyMuS-4" style="edgeStyle=orthogonalEdgeStyle;rounded=0;orthogonalLoop=1;jettySize=auto;html=1;exitX=0.5;exitY=1;exitDx=0;exitDy=0;entryX=0.5;entryY=0;entryDx=0;entryDy=0;" edge="1" parent="1" source="yEqpSXXkdBYhzi_phy77-3" target="yEqpSXXkdBYhzi_phy77-4">
          <mxGeometry relative="1" as="geometry" />
        </mxCell>
        <mxCell id="R98RhcQYHC6nBrZnyMuS-7" style="edgeStyle=orthogonalEdgeStyle;rounded=0;orthogonalLoop=1;jettySize=auto;html=1;exitX=1;exitY=0.5;exitDx=0;exitDy=0;entryX=0;entryY=0.5;entryDx=0;entryDy=0;" edge="1" parent="1" source="yEqpSXXkdBYhzi_phy77-3" target="yEqpSXXkdBYhzi_phy77-11">
          <mxGeometry relative="1" as="geometry" />
        </mxCell>
        <mxCell id="yEqpSXXkdBYhzi_phy77-3" value="&lt;span style=&quot;background-color: transparent; color: light-dark(rgb(0, 0, 0), rgb(255, 255, 255));&quot;&gt;Abstract screened:​&lt;/span&gt;&lt;br&gt;&lt;blockquote style=&quot;margin: 0 0 0 40px; border: none; padding: 0px;&quot;&gt;&lt;b style=&quot;background-color: transparent; color: light-dark(rgb(0, 0, 0), rgb(255, 255, 255));&quot;&gt;Round Zero = 53&lt;br&gt;&lt;/b&gt;&lt;b style=&quot;background-color: transparent; color: light-dark(rgb(0, 0, 0), rgb(255, 255, 255));&quot;&gt;Round One&amp;nbsp; = ​19&lt;/b&gt;&lt;div style=&quot;&quot;&gt;&lt;b&gt;Round Two&amp;nbsp; = 63&lt;/b&gt;&lt;/div&gt;&lt;/blockquote&gt;" style="rounded=0;whiteSpace=wrap;html=1;strokeColor=#6C8EBF;align=left;spacingLeft=12;" vertex="1" parent="1">
          <mxGeometry x="150" y="400.63" width="178.13" height="99.37" as="geometry" />
        </mxCell>
        <mxCell id="R98RhcQYHC6nBrZnyMuS-5" style="edgeStyle=orthogonalEdgeStyle;rounded=0;orthogonalLoop=1;jettySize=auto;html=1;exitX=0.5;exitY=1;exitDx=0;exitDy=0;entryX=0.5;entryY=0;entryDx=0;entryDy=0;" edge="1" parent="1" source="yEqpSXXkdBYhzi_phy77-4" target="yEqpSXXkdBYhzi_phy77-5">
          <mxGeometry relative="1" as="geometry" />
        </mxCell>
        <mxCell id="R98RhcQYHC6nBrZnyMuS-6" style="edgeStyle=orthogonalEdgeStyle;rounded=0;orthogonalLoop=1;jettySize=auto;html=1;exitX=1;exitY=0.5;exitDx=0;exitDy=0;entryX=0;entryY=0.5;entryDx=0;entryDy=0;" edge="1" parent="1" source="yEqpSXXkdBYhzi_phy77-4" target="yEqpSXXkdBYhzi_phy77-12">
          <mxGeometry relative="1" as="geometry" />
        </mxCell>
        <mxCell id="yEqpSXXkdBYhzi_phy77-4" value="&lt;span style=&quot;background-color: transparent; color: light-dark(rgb(0, 0, 0), rgb(255, 255, 255));&quot;&gt;Full-text screened:​&lt;/span&gt;&lt;br&gt;&lt;blockquote style=&quot;margin: 0 0 0 40px; border: none; padding: 0px;&quot;&gt;&lt;b style=&quot;background-color: transparent; color: light-dark(rgb(0, 0, 0), rgb(255, 255, 255));&quot;&gt;Round Zero = 12&lt;br&gt;&lt;/b&gt;&lt;b style=&quot;background-color: transparent; color: light-dark(rgb(0, 0, 0), rgb(255, 255, 255));&quot;&gt;Round One&amp;nbsp; = ​15&lt;/b&gt;&lt;div style=&quot;&quot;&gt;&lt;b&gt;Round Two&amp;nbsp; = 29&lt;/b&gt;&lt;/div&gt;&lt;/blockquote&gt;" style="rounded=0;whiteSpace=wrap;html=1;strokeColor=#6C8EBF;align=left;spacingLeft=12;" vertex="1" parent="1">
          <mxGeometry x="150" y="532.33" width="178.13" height="99.37" as="geometry" />
        </mxCell>
        <mxCell id="yEqpSXXkdBYhzi_phy77-5" value="&lt;div style=&quot;&quot;&gt;&lt;span style=&quot;background-color: transparent; color: light-dark(rgb(0, 0, 0), rgb(255, 255, 255));&quot;&gt;Studies included:​&lt;/span&gt;&lt;/div&gt;&lt;blockquote style=&quot;margin: 0 0 0 40px; border: none; padding: 0px;&quot;&gt;&lt;b style=&quot;color: light-dark(rgb(0, 0, 0), rgb(255, 255, 255)); background-color: transparent;&quot;&gt;Round Zero = 3&lt;br&gt;&lt;/b&gt;&lt;b style=&quot;color: light-dark(rgb(0, 0, 0), rgb(255, 255, 255)); background-color: transparent;&quot;&gt;Round One&amp;nbsp; = ​9&lt;/b&gt;&lt;div style=&quot;&quot;&gt;&lt;b&gt;Round Two&amp;nbsp; = 16&lt;/b&gt;&lt;/div&gt;&lt;/blockquote&gt;" style="rounded=0;whiteSpace=wrap;html=1;strokeColor=#6C8EBF;align=left;spacingLeft=12;" vertex="1" parent="1">
          <mxGeometry x="150" y="662.01" width="178.13" height="99.37" as="geometry" />
        </mxCell>
        <mxCell id="yEqpSXXkdBYhzi_phy77-10" value="&lt;span style=&quot;background-color: transparent; color: light-dark(rgb(0, 0, 0), rgb(255, 255, 255));&quot;&gt;Articles excluded:​&lt;/span&gt;&lt;br&gt;&lt;blockquote style=&quot;margin: 0 0 0 40px; border: none; padding: 0px;&quot;&gt;&lt;b style=&quot;background-color: transparent; color: light-dark(rgb(0, 0, 0), rgb(255, 255, 255));&quot;&gt;Round Zero = 7&lt;br&gt;&lt;/b&gt;&lt;b style=&quot;background-color: transparent; color: light-dark(rgb(0, 0, 0), rgb(255, 255, 255));&quot;&gt;Round One&amp;nbsp; = ​0&lt;/b&gt;&lt;div style=&quot;&quot;&gt;&lt;b&gt;Round Two&amp;nbsp; = 11&lt;/b&gt;&lt;/div&gt;&lt;/blockquote&gt;" style="rounded=0;whiteSpace=wrap;html=1;strokeColor=#6C8EBF;align=left;spacingLeft=12;" vertex="1" parent="1">
          <mxGeometry x="360" y="270.63" width="178.13" height="99.37" as="geometry" />
        </mxCell>
        <mxCell id="yEqpSXXkdBYhzi_phy77-11" value="&lt;span style=&quot;background-color: transparent; color: light-dark(rgb(0, 0, 0), rgb(255, 255, 255));&quot;&gt;Articles excluded:​&lt;/span&gt;&lt;br&gt;&lt;blockquote style=&quot;margin: 0 0 0 40px; border: none; padding: 0px;&quot;&gt;&lt;b style=&quot;background-color: transparent; color: light-dark(rgb(0, 0, 0), rgb(255, 255, 255));&quot;&gt;Round Zero = 7&lt;br&gt;&lt;/b&gt;&lt;b style=&quot;background-color: transparent; color: light-dark(rgb(0, 0, 0), rgb(255, 255, 255));&quot;&gt;Round One&amp;nbsp; = ​0&lt;/b&gt;&lt;div style=&quot;&quot;&gt;&lt;b&gt;Round Two&amp;nbsp; = 11&lt;/b&gt;&lt;/div&gt;&lt;/blockquote&gt;" style="rounded=0;whiteSpace=wrap;html=1;strokeColor=#6C8EBF;align=left;spacingLeft=12;" vertex="1" parent="1">
          <mxGeometry x="360" y="400.63" width="178.13" height="99.37" as="geometry" />
        </mxCell>
        <mxCell id="yEqpSXXkdBYhzi_phy77-12" value="&lt;span style=&quot;background-color: transparent; color: light-dark(rgb(0, 0, 0), rgb(255, 255, 255));&quot;&gt;Articles excluded:​&lt;/span&gt;&lt;br&gt;&lt;blockquote style=&quot;margin: 0 0 0 40px; border: none; padding: 0px;&quot;&gt;&lt;b style=&quot;background-color: transparent; color: light-dark(rgb(0, 0, 0), rgb(255, 255, 255));&quot;&gt;Round Zero = 7&lt;br&gt;&lt;/b&gt;&lt;b style=&quot;background-color: transparent; color: light-dark(rgb(0, 0, 0), rgb(255, 255, 255));&quot;&gt;Round One&amp;nbsp; = ​0&lt;/b&gt;&lt;div style=&quot;&quot;&gt;&lt;b&gt;Round Two&amp;nbsp; = 11&lt;/b&gt;&lt;/div&gt;&lt;/blockquote&gt;" style="rounded=0;whiteSpace=wrap;html=1;strokeColor=#6C8EBF;align=left;spacingLeft=12;" vertex="1" parent="1">
          <mxGeometry x="360" y="532.33" width="178.13" height="99.37" as="geometry" />
        </mxCell>
      </root>
    </mxGraphModel>
  </diagram>
  <diagram id="z5wotDEhyhYm5FsnGCbo" name="Page-3">
    <mxGraphModel dx="1352" dy="768" grid="1" gridSize="10" guides="1" tooltips="1" connect="1" arrows="1" fold="1" page="1" pageScale="1" pageWidth="850" pageHeight="1100" math="0" shadow="0">
      <root>
        <mxCell id="0" />
        <mxCell id="1" parent="0" />
        <mxCell id="xRI9JdopD2xjSFH5YjuS-22" value="" style="rounded=1;whiteSpace=wrap;html=1;rotation=-90;fillColor=#dae8fc;strokeColor=none;fontColor=#3F5170;fontStyle=1" vertex="1" parent="1">
          <mxGeometry x="962.38" y="417.8200000000001" width="80" height="45" as="geometry" />
        </mxCell>
        <mxCell id="xRI9JdopD2xjSFH5YjuS-20" value="Screening​" style="rounded=1;whiteSpace=wrap;html=1;rotation=-90;fillColor=#dae8fc;strokeColor=none;fontColor=#3F5170;fontStyle=1" vertex="1" parent="1">
          <mxGeometry x="916.005" y="282.195" width="168.75" height="45" as="geometry" />
        </mxCell>
        <mxCell id="P6ezKtnSoDDgzIRJ1PIj-5" value="" style="rounded=1;whiteSpace=wrap;html=1;rotation=-90;fillColor=#dae8fc;strokeColor=none;fontColor=#3F5170;fontStyle=1" vertex="1" parent="1">
          <mxGeometry x="492.07" y="-320" width="80" height="980.62" as="geometry" />
        </mxCell>
        <mxCell id="P6ezKtnSoDDgzIRJ1PIj-4" value="" style="rounded=1;whiteSpace=wrap;html=1;rotation=-90;fillColor=#dae8fc;strokeColor=none;fontColor=#3F5170;fontStyle=1" vertex="1" parent="1">
          <mxGeometry x="495.15" y="40.17" width="80" height="980.3" as="geometry" />
        </mxCell>
        <mxCell id="P6ezKtnSoDDgzIRJ1PIj-3" value="" style="rounded=1;whiteSpace=wrap;html=1;rotation=-90;fillColor=#dae8fc;strokeColor=none;fontColor=#3F5170;fontStyle=1" vertex="1" parent="1">
          <mxGeometry x="495.15" y="-49.829999999999984" width="80" height="980.3" as="geometry" />
        </mxCell>
        <mxCell id="P6ezKtnSoDDgzIRJ1PIj-2" value="" style="rounded=1;whiteSpace=wrap;html=1;rotation=-90;fillColor=#dae8fc;strokeColor=none;fontColor=#3F5170;fontStyle=1" vertex="1" parent="1">
          <mxGeometry x="447.57" y="-184.42000000000002" width="168.75" height="978.23" as="geometry" />
        </mxCell>
        <mxCell id="xRI9JdopD2xjSFH5YjuS-25" style="edgeStyle=orthogonalEdgeStyle;rounded=0;orthogonalLoop=1;jettySize=auto;html=1;exitX=0.5;exitY=1;exitDx=0;exitDy=0;entryX=0.5;entryY=0;entryDx=0;entryDy=0;" edge="1" parent="1" source="IyJ5jKV5alwc9MimHkLu-2" target="IyJ5jKV5alwc9MimHkLu-4">
          <mxGeometry relative="1" as="geometry" />
        </mxCell>
        <mxCell id="IyJ5jKV5alwc9MimHkLu-2" value="&lt;div&gt;Records identified and titles screened:​&lt;/div&gt;&lt;div&gt;&lt;b&gt;N = 200​&lt;/b&gt;&lt;/div&gt;" style="rounded=0;whiteSpace=wrap;html=1;" vertex="1" parent="1">
          <mxGeometry x="106.87" y="140.31" width="120" height="60" as="geometry" />
        </mxCell>
        <mxCell id="xRI9JdopD2xjSFH5YjuS-26" style="edgeStyle=orthogonalEdgeStyle;rounded=0;orthogonalLoop=1;jettySize=auto;html=1;exitX=0.5;exitY=1;exitDx=0;exitDy=0;entryX=0.5;entryY=0;entryDx=0;entryDy=0;" edge="1" parent="1" source="IyJ5jKV5alwc9MimHkLu-4" target="IyJ5jKV5alwc9MimHkLu-7">
          <mxGeometry relative="1" as="geometry" />
        </mxCell>
        <mxCell id="IyJ5jKV5alwc9MimHkLu-4" value="&lt;div&gt;Records after duplicate removal:​&lt;/div&gt;&lt;div&gt;&lt;b&gt;N = 60​&lt;/b&gt;&lt;/div&gt;" style="rounded=0;whiteSpace=wrap;html=1;" vertex="1" parent="1">
          <mxGeometry x="106.87" y="230.31" width="120" height="60" as="geometry" />
        </mxCell>
        <mxCell id="xRI9JdopD2xjSFH5YjuS-27" style="edgeStyle=orthogonalEdgeStyle;rounded=0;orthogonalLoop=1;jettySize=auto;html=1;exitX=0.5;exitY=1;exitDx=0;exitDy=0;entryX=0.5;entryY=0;entryDx=0;entryDy=0;" edge="1" parent="1" source="IyJ5jKV5alwc9MimHkLu-7" target="IyJ5jKV5alwc9MimHkLu-10">
          <mxGeometry relative="1" as="geometry" />
        </mxCell>
        <mxCell id="xRI9JdopD2xjSFH5YjuS-29" style="edgeStyle=orthogonalEdgeStyle;rounded=0;orthogonalLoop=1;jettySize=auto;html=1;exitX=1;exitY=0.5;exitDx=0;exitDy=0;entryX=0;entryY=0.5;entryDx=0;entryDy=0;" edge="1" parent="1" source="IyJ5jKV5alwc9MimHkLu-7" target="IyJ5jKV5alwc9MimHkLu-14">
          <mxGeometry relative="1" as="geometry" />
        </mxCell>
        <mxCell id="IyJ5jKV5alwc9MimHkLu-7" value="&lt;div&gt;Abstract screened:​&lt;/div&gt;&lt;div&gt;&lt;b&gt;N = 53​&lt;/b&gt;&lt;/div&gt;" style="rounded=0;whiteSpace=wrap;html=1;" vertex="1" parent="1">
          <mxGeometry x="106.87" y="320.31" width="120" height="60" as="geometry" />
        </mxCell>
        <mxCell id="xRI9JdopD2xjSFH5YjuS-28" style="edgeStyle=orthogonalEdgeStyle;rounded=0;orthogonalLoop=1;jettySize=auto;html=1;exitX=0.5;exitY=1;exitDx=0;exitDy=0;entryX=0.5;entryY=0;entryDx=0;entryDy=0;" edge="1" parent="1" source="IyJ5jKV5alwc9MimHkLu-10" target="IyJ5jKV5alwc9MimHkLu-13">
          <mxGeometry relative="1" as="geometry" />
        </mxCell>
        <mxCell id="xRI9JdopD2xjSFH5YjuS-30" style="edgeStyle=orthogonalEdgeStyle;rounded=0;orthogonalLoop=1;jettySize=auto;html=1;exitX=1;exitY=0.5;exitDx=0;exitDy=0;entryX=0;entryY=0.5;entryDx=0;entryDy=0;" edge="1" parent="1" source="IyJ5jKV5alwc9MimHkLu-10" target="IyJ5jKV5alwc9MimHkLu-15">
          <mxGeometry relative="1" as="geometry" />
        </mxCell>
        <mxCell id="IyJ5jKV5alwc9MimHkLu-10" value="&lt;div&gt;Full-text screened:​&lt;/div&gt;&lt;div&gt;&lt;b&gt;N = 12​&lt;/b&gt;&lt;/div&gt;" style="rounded=0;whiteSpace=wrap;html=1;" vertex="1" parent="1">
          <mxGeometry x="106.87" y="410.31" width="120" height="60" as="geometry" />
        </mxCell>
        <mxCell id="xRI9JdopD2xjSFH5YjuS-9" style="edgeStyle=orthogonalEdgeStyle;rounded=0;orthogonalLoop=1;jettySize=auto;html=1;exitX=1;exitY=0.5;exitDx=0;exitDy=0;entryX=0.5;entryY=0;entryDx=0;entryDy=0;" edge="1" parent="1" source="IyJ5jKV5alwc9MimHkLu-13" target="IyJ5jKV5alwc9MimHkLu-21">
          <mxGeometry relative="1" as="geometry">
            <Array as="points">
              <mxPoint x="400" y="530.31" />
              <mxPoint x="400" y="120.31" />
              <mxPoint x="473" y="120.31" />
            </Array>
          </mxGeometry>
        </mxCell>
        <mxCell id="xRI9JdopD2xjSFH5YjuS-11" style="edgeStyle=orthogonalEdgeStyle;rounded=0;orthogonalLoop=1;jettySize=auto;html=1;exitX=0.5;exitY=1;exitDx=0;exitDy=0;entryX=0.5;entryY=0;entryDx=0;entryDy=0;" edge="1" parent="1" source="IyJ5jKV5alwc9MimHkLu-13" target="IyJ5jKV5alwc9MimHkLu-57">
          <mxGeometry relative="1" as="geometry" />
        </mxCell>
        <mxCell id="IyJ5jKV5alwc9MimHkLu-13" value="&lt;div&gt;Studies included:​&lt;/div&gt;&lt;div&gt;&lt;b&gt;N = 3​&lt;/b&gt;&lt;/div&gt;" style="rounded=0;whiteSpace=wrap;html=1;" vertex="1" parent="1">
          <mxGeometry x="106.87" y="500.31" width="120" height="60" as="geometry" />
        </mxCell>
        <mxCell id="IyJ5jKV5alwc9MimHkLu-14" value="&lt;div&gt;Articles excluded:​&lt;/div&gt;&lt;div&gt;&lt;b&gt;N = 270​&lt;/b&gt;&lt;/div&gt;" style="rounded=0;whiteSpace=wrap;html=1;" vertex="1" parent="1">
          <mxGeometry x="266.87" y="320.31" width="120" height="60" as="geometry" />
        </mxCell>
        <mxCell id="IyJ5jKV5alwc9MimHkLu-15" value="&lt;div&gt;Articles excluded:​&lt;/div&gt;&lt;div&gt;&lt;b&gt;N = 28&lt;/b&gt;&lt;/div&gt;" style="rounded=0;whiteSpace=wrap;html=1;" vertex="1" parent="1">
          <mxGeometry x="266.87" y="410.31" width="120" height="60" as="geometry" />
        </mxCell>
        <mxCell id="IyJ5jKV5alwc9MimHkLu-16" value="Eligibility​" style="rounded=1;whiteSpace=wrap;html=1;rotation=-90;fillColor=#dae8fc;strokeColor=none;fontColor=#3F5170;fontStyle=1" vertex="1" parent="1">
          <mxGeometry x="24.369999999999997" y="417.81" width="80" height="45" as="geometry" />
        </mxCell>
        <mxCell id="IyJ5jKV5alwc9MimHkLu-17" value="Included​" style="rounded=1;whiteSpace=wrap;html=1;rotation=-90;fillColor=#dae8fc;strokeColor=none;fontColor=#3F5170;fontStyle=1" vertex="1" parent="1">
          <mxGeometry x="24.369999999999997" y="507.81" width="80" height="45" as="geometry" />
        </mxCell>
        <mxCell id="IyJ5jKV5alwc9MimHkLu-18" value="Identification" style="rounded=1;whiteSpace=wrap;html=1;rotation=-90;fillColor=#dae8fc;strokeColor=none;fontColor=#3F5170;fontStyle=1" vertex="1" parent="1">
          <mxGeometry x="24.369999999999997" y="147.81" width="80" height="45" as="geometry" />
        </mxCell>
        <mxCell id="IyJ5jKV5alwc9MimHkLu-19" value="Screening​" style="rounded=1;whiteSpace=wrap;html=1;rotation=-90;fillColor=#dae8fc;strokeColor=none;fontColor=#3F5170;fontStyle=1" vertex="1" parent="1">
          <mxGeometry x="-20.010000000000005" y="282.19" width="168.75" height="45" as="geometry" />
        </mxCell>
        <mxCell id="xRI9JdopD2xjSFH5YjuS-31" style="edgeStyle=orthogonalEdgeStyle;rounded=0;orthogonalLoop=1;jettySize=auto;html=1;exitX=0.5;exitY=1;exitDx=0;exitDy=0;entryX=0.5;entryY=0;entryDx=0;entryDy=0;" edge="1" parent="1" source="IyJ5jKV5alwc9MimHkLu-21" target="IyJ5jKV5alwc9MimHkLu-23">
          <mxGeometry relative="1" as="geometry" />
        </mxCell>
        <mxCell id="IyJ5jKV5alwc9MimHkLu-21" value="&lt;div&gt;Records identified and titles screened:​&lt;/div&gt;&lt;div&gt;&lt;b&gt;N = 37​&lt;/b&gt;&lt;/div&gt;" style="rounded=0;whiteSpace=wrap;html=1;" vertex="1" parent="1">
          <mxGeometry x="413" y="140.31" width="120" height="60" as="geometry" />
        </mxCell>
        <mxCell id="IyJ5jKV5alwc9MimHkLu-22" style="edgeStyle=orthogonalEdgeStyle;rounded=0;orthogonalLoop=1;jettySize=auto;html=1;exitX=0.5;exitY=1;exitDx=0;exitDy=0;entryX=0.5;entryY=0;entryDx=0;entryDy=0;strokeColor=light-dark(rgba(0, 0, 0, 0), #5c79a3);" edge="1" parent="1" source="IyJ5jKV5alwc9MimHkLu-23" target="IyJ5jKV5alwc9MimHkLu-26">
          <mxGeometry relative="1" as="geometry" />
        </mxCell>
        <mxCell id="xRI9JdopD2xjSFH5YjuS-32" style="edgeStyle=orthogonalEdgeStyle;rounded=0;orthogonalLoop=1;jettySize=auto;html=1;exitX=0.5;exitY=1;exitDx=0;exitDy=0;entryX=0.5;entryY=0;entryDx=0;entryDy=0;" edge="1" parent="1" source="IyJ5jKV5alwc9MimHkLu-23" target="IyJ5jKV5alwc9MimHkLu-26">
          <mxGeometry relative="1" as="geometry" />
        </mxCell>
        <mxCell id="IyJ5jKV5alwc9MimHkLu-23" value="&lt;div&gt;Records after duplicate removal:​&lt;/div&gt;&lt;div&gt;&lt;b&gt;N = 19​&lt;/b&gt;&lt;/div&gt;" style="rounded=0;whiteSpace=wrap;html=1;" vertex="1" parent="1">
          <mxGeometry x="413" y="230.31" width="120" height="60" as="geometry" />
        </mxCell>
        <mxCell id="xRI9JdopD2xjSFH5YjuS-33" style="edgeStyle=orthogonalEdgeStyle;rounded=0;orthogonalLoop=1;jettySize=auto;html=1;exitX=0.5;exitY=1;exitDx=0;exitDy=0;entryX=0.5;entryY=0;entryDx=0;entryDy=0;" edge="1" parent="1" source="IyJ5jKV5alwc9MimHkLu-26" target="IyJ5jKV5alwc9MimHkLu-29">
          <mxGeometry relative="1" as="geometry" />
        </mxCell>
        <mxCell id="xRI9JdopD2xjSFH5YjuS-35" style="edgeStyle=orthogonalEdgeStyle;rounded=0;orthogonalLoop=1;jettySize=auto;html=1;exitX=1;exitY=0.5;exitDx=0;exitDy=0;entryX=0;entryY=0.5;entryDx=0;entryDy=0;" edge="1" parent="1" source="IyJ5jKV5alwc9MimHkLu-26" target="IyJ5jKV5alwc9MimHkLu-33">
          <mxGeometry relative="1" as="geometry" />
        </mxCell>
        <mxCell id="IyJ5jKV5alwc9MimHkLu-26" value="&lt;div&gt;Abstract screened:​&lt;/div&gt;&lt;div&gt;&lt;b&gt;N = 19​&lt;/b&gt;&lt;/div&gt;" style="rounded=0;whiteSpace=wrap;html=1;" vertex="1" parent="1">
          <mxGeometry x="413" y="320.31" width="120" height="60" as="geometry" />
        </mxCell>
        <mxCell id="xRI9JdopD2xjSFH5YjuS-34" style="edgeStyle=orthogonalEdgeStyle;rounded=0;orthogonalLoop=1;jettySize=auto;html=1;exitX=0.5;exitY=1;exitDx=0;exitDy=0;entryX=0.5;entryY=0;entryDx=0;entryDy=0;" edge="1" parent="1" source="IyJ5jKV5alwc9MimHkLu-29" target="IyJ5jKV5alwc9MimHkLu-32">
          <mxGeometry relative="1" as="geometry" />
        </mxCell>
        <mxCell id="xRI9JdopD2xjSFH5YjuS-36" style="edgeStyle=orthogonalEdgeStyle;rounded=0;orthogonalLoop=1;jettySize=auto;html=1;exitX=1;exitY=0.5;exitDx=0;exitDy=0;entryX=0;entryY=0.5;entryDx=0;entryDy=0;" edge="1" parent="1" source="IyJ5jKV5alwc9MimHkLu-29" target="IyJ5jKV5alwc9MimHkLu-34">
          <mxGeometry relative="1" as="geometry" />
        </mxCell>
        <mxCell id="IyJ5jKV5alwc9MimHkLu-29" value="&lt;div&gt;Full-text screened:​&lt;/div&gt;&lt;div&gt;&lt;b&gt;N = 15​&lt;/b&gt;&lt;/div&gt;" style="rounded=0;whiteSpace=wrap;html=1;" vertex="1" parent="1">
          <mxGeometry x="413" y="410.31" width="120" height="60" as="geometry" />
        </mxCell>
        <mxCell id="xRI9JdopD2xjSFH5YjuS-12" style="edgeStyle=orthogonalEdgeStyle;rounded=0;orthogonalLoop=1;jettySize=auto;html=1;exitX=0.5;exitY=1;exitDx=0;exitDy=0;" edge="1" parent="1" source="IyJ5jKV5alwc9MimHkLu-32">
          <mxGeometry relative="1" as="geometry">
            <mxPoint x="473" y="620.31" as="targetPoint" />
          </mxGeometry>
        </mxCell>
        <mxCell id="p4kmHurd7_QKkSY6nmtB-1" style="edgeStyle=orthogonalEdgeStyle;rounded=0;orthogonalLoop=1;jettySize=auto;html=1;exitX=1;exitY=0.5;exitDx=0;exitDy=0;entryX=0.5;entryY=0;entryDx=0;entryDy=0;" edge="1" parent="1" source="IyJ5jKV5alwc9MimHkLu-32" target="IyJ5jKV5alwc9MimHkLu-40">
          <mxGeometry relative="1" as="geometry">
            <Array as="points">
              <mxPoint x="706" y="530" />
              <mxPoint x="706" y="120" />
              <mxPoint x="779" y="120" />
            </Array>
          </mxGeometry>
        </mxCell>
        <mxCell id="IyJ5jKV5alwc9MimHkLu-32" value="&lt;div&gt;Studies included:​&lt;/div&gt;&lt;div&gt;&lt;b&gt;N = 9​&lt;/b&gt;&lt;/div&gt;" style="rounded=0;whiteSpace=wrap;html=1;" vertex="1" parent="1">
          <mxGeometry x="413" y="500.31" width="120" height="60" as="geometry" />
        </mxCell>
        <mxCell id="IyJ5jKV5alwc9MimHkLu-33" value="&lt;div&gt;Articles excluded:​&lt;/div&gt;&lt;div&gt;&lt;b&gt;N = 4​&lt;/b&gt;&lt;/div&gt;" style="rounded=0;whiteSpace=wrap;html=1;" vertex="1" parent="1">
          <mxGeometry x="573" y="320.31" width="120" height="60" as="geometry" />
        </mxCell>
        <mxCell id="IyJ5jKV5alwc9MimHkLu-34" value="&lt;div&gt;Articles excluded:​&lt;/div&gt;&lt;div&gt;&lt;b&gt;N = 6&lt;/b&gt;&lt;/div&gt;" style="rounded=0;whiteSpace=wrap;html=1;" vertex="1" parent="1">
          <mxGeometry x="573" y="410.31" width="120" height="60" as="geometry" />
        </mxCell>
        <mxCell id="xRI9JdopD2xjSFH5YjuS-37" style="edgeStyle=orthogonalEdgeStyle;rounded=0;orthogonalLoop=1;jettySize=auto;html=1;exitX=0.5;exitY=1;exitDx=0;exitDy=0;" edge="1" parent="1" source="IyJ5jKV5alwc9MimHkLu-40" target="IyJ5jKV5alwc9MimHkLu-42">
          <mxGeometry relative="1" as="geometry" />
        </mxCell>
        <mxCell id="IyJ5jKV5alwc9MimHkLu-40" value="&lt;div&gt;Records identified and titles screened:​&lt;/div&gt;&lt;div&gt;&lt;b&gt;N = 173​&lt;/b&gt;&lt;/div&gt;" style="rounded=0;whiteSpace=wrap;html=1;" vertex="1" parent="1">
          <mxGeometry x="719.0000000000001" y="140.31" width="120" height="60" as="geometry" />
        </mxCell>
        <mxCell id="xRI9JdopD2xjSFH5YjuS-38" style="edgeStyle=orthogonalEdgeStyle;rounded=0;orthogonalLoop=1;jettySize=auto;html=1;exitX=0.5;exitY=1;exitDx=0;exitDy=0;entryX=0.5;entryY=0;entryDx=0;entryDy=0;" edge="1" parent="1" source="IyJ5jKV5alwc9MimHkLu-42" target="IyJ5jKV5alwc9MimHkLu-45">
          <mxGeometry relative="1" as="geometry" />
        </mxCell>
        <mxCell id="IyJ5jKV5alwc9MimHkLu-42" value="&lt;div&gt;Records after duplicate removal:​&lt;/div&gt;&lt;div&gt;&lt;b&gt;N = 74​&lt;/b&gt;&lt;/div&gt;" style="rounded=0;whiteSpace=wrap;html=1;" vertex="1" parent="1">
          <mxGeometry x="719.0000000000001" y="230.31" width="120" height="60" as="geometry" />
        </mxCell>
        <mxCell id="xRI9JdopD2xjSFH5YjuS-39" style="edgeStyle=orthogonalEdgeStyle;rounded=0;orthogonalLoop=1;jettySize=auto;html=1;exitX=0.5;exitY=1;exitDx=0;exitDy=0;entryX=0.5;entryY=0;entryDx=0;entryDy=0;" edge="1" parent="1" source="IyJ5jKV5alwc9MimHkLu-45" target="IyJ5jKV5alwc9MimHkLu-48">
          <mxGeometry relative="1" as="geometry" />
        </mxCell>
        <mxCell id="xRI9JdopD2xjSFH5YjuS-41" style="edgeStyle=orthogonalEdgeStyle;rounded=0;orthogonalLoop=1;jettySize=auto;html=1;exitX=1;exitY=0.5;exitDx=0;exitDy=0;entryX=0;entryY=0.5;entryDx=0;entryDy=0;" edge="1" parent="1" source="IyJ5jKV5alwc9MimHkLu-45" target="IyJ5jKV5alwc9MimHkLu-51">
          <mxGeometry relative="1" as="geometry" />
        </mxCell>
        <mxCell id="IyJ5jKV5alwc9MimHkLu-45" value="&lt;div&gt;Abstract screened:​&lt;/div&gt;&lt;div&gt;&lt;b&gt;N = 63​&lt;/b&gt;&lt;/div&gt;" style="rounded=0;whiteSpace=wrap;html=1;" vertex="1" parent="1">
          <mxGeometry x="719.0000000000001" y="320.31" width="120" height="60" as="geometry" />
        </mxCell>
        <mxCell id="xRI9JdopD2xjSFH5YjuS-40" style="edgeStyle=orthogonalEdgeStyle;rounded=0;orthogonalLoop=1;jettySize=auto;html=1;exitX=0.5;exitY=1;exitDx=0;exitDy=0;entryX=0.5;entryY=0;entryDx=0;entryDy=0;" edge="1" parent="1" source="IyJ5jKV5alwc9MimHkLu-48" target="IyJ5jKV5alwc9MimHkLu-50">
          <mxGeometry relative="1" as="geometry" />
        </mxCell>
        <mxCell id="xRI9JdopD2xjSFH5YjuS-42" style="edgeStyle=orthogonalEdgeStyle;rounded=0;orthogonalLoop=1;jettySize=auto;html=1;exitX=1;exitY=0.5;exitDx=0;exitDy=0;entryX=0;entryY=0.5;entryDx=0;entryDy=0;" edge="1" parent="1" source="IyJ5jKV5alwc9MimHkLu-48" target="IyJ5jKV5alwc9MimHkLu-52">
          <mxGeometry relative="1" as="geometry" />
        </mxCell>
        <mxCell id="IyJ5jKV5alwc9MimHkLu-48" value="&lt;div&gt;Full-text screened:​&lt;/div&gt;&lt;div&gt;&lt;b&gt;N = 29​&lt;/b&gt;&lt;/div&gt;" style="rounded=0;whiteSpace=wrap;html=1;" vertex="1" parent="1">
          <mxGeometry x="719.0000000000001" y="410.31" width="120" height="60" as="geometry" />
        </mxCell>
        <mxCell id="xRI9JdopD2xjSFH5YjuS-13" style="edgeStyle=orthogonalEdgeStyle;rounded=0;orthogonalLoop=1;jettySize=auto;html=1;exitX=0.5;exitY=1;exitDx=0;exitDy=0;entryX=0.5;entryY=0;entryDx=0;entryDy=0;" edge="1" parent="1" source="IyJ5jKV5alwc9MimHkLu-50" target="IyJ5jKV5alwc9MimHkLu-57">
          <mxGeometry relative="1" as="geometry" />
        </mxCell>
        <mxCell id="IyJ5jKV5alwc9MimHkLu-50" value="&lt;div&gt;Studies included:​&lt;/div&gt;&lt;div&gt;&lt;b&gt;N = 16​&lt;/b&gt;&lt;/div&gt;" style="rounded=0;whiteSpace=wrap;html=1;" vertex="1" parent="1">
          <mxGeometry x="719.0000000000001" y="500.31" width="120" height="60" as="geometry" />
        </mxCell>
        <mxCell id="IyJ5jKV5alwc9MimHkLu-51" value="&lt;div&gt;Articles excluded:​&lt;/div&gt;&lt;div&gt;&lt;b&gt;N = 34​&lt;/b&gt;&lt;/div&gt;" style="rounded=0;whiteSpace=wrap;html=1;" vertex="1" parent="1">
          <mxGeometry x="878.9999999999998" y="320.31" width="120" height="60" as="geometry" />
        </mxCell>
        <mxCell id="IyJ5jKV5alwc9MimHkLu-52" value="&lt;div&gt;Articles excluded:​&lt;/div&gt;&lt;div&gt;&lt;b&gt;N = 13&lt;/b&gt;&lt;/div&gt;" style="rounded=0;whiteSpace=wrap;html=1;" vertex="1" parent="1">
          <mxGeometry x="878.9999999999998" y="410.31" width="120" height="60" as="geometry" />
        </mxCell>
        <mxCell id="IyJ5jKV5alwc9MimHkLu-57" value="&lt;div&gt;Total studies included:​&lt;/div&gt;&lt;div&gt;&lt;b&gt;N = 28​&lt;/b&gt;&lt;/div&gt;" style="rounded=0;whiteSpace=wrap;html=1;" vertex="1" parent="1">
          <mxGeometry x="409.5" y="620.31" width="127" height="60" as="geometry" />
        </mxCell>
        <mxCell id="xRI9JdopD2xjSFH5YjuS-3" value="&lt;font style=&quot;font-size: 18px;&quot;&gt;&lt;b&gt;+&lt;/b&gt;&lt;/font&gt;" style="ellipse;whiteSpace=wrap;html=1;aspect=fixed;" vertex="1" parent="1">
          <mxGeometry x="458" y="576.31" width="30" height="30" as="geometry" />
        </mxCell>
        <mxCell id="xRI9JdopD2xjSFH5YjuS-16" value="Initial Search and Screening" style="rounded=1;whiteSpace=wrap;html=1;rotation=0;fontColor=light-dark(#000000, #9aaac4);fontStyle=1" vertex="1" parent="1">
          <mxGeometry x="106.87" y="66.01" width="280.37" height="45" as="geometry" />
        </mxCell>
        <mxCell id="xRI9JdopD2xjSFH5YjuS-18" value="First Round" style="rounded=1;whiteSpace=wrap;html=1;rotation=0;fontColor=light-dark(#000000, #9aaac4);fontStyle=1" vertex="1" parent="1">
          <mxGeometry x="412.63" y="66.00999999999999" width="280.37" height="45" as="geometry" />
        </mxCell>
        <mxCell id="xRI9JdopD2xjSFH5YjuS-19" value="Second Round" style="rounded=1;whiteSpace=wrap;html=1;rotation=0;fontColor=light-dark(#000000, #9aaac4);fontStyle=1" vertex="1" parent="1">
          <mxGeometry x="718.63" y="66.00999999999999" width="280.37" height="45" as="geometry" />
        </mxCell>
        <mxCell id="xRI9JdopD2xjSFH5YjuS-21" value="" style="rounded=1;whiteSpace=wrap;html=1;rotation=-90;fillColor=#dae8fc;strokeColor=none;fontColor=#3F5170;fontStyle=1" vertex="1" parent="1">
          <mxGeometry x="960.38" y="147.81" width="80" height="45" as="geometry" />
        </mxCell>
        <mxCell id="xRI9JdopD2xjSFH5YjuS-23" value="" style="rounded=1;whiteSpace=wrap;html=1;rotation=-90;fillColor=#dae8fc;strokeColor=none;fontColor=#3F5170;fontStyle=1" vertex="1" parent="1">
          <mxGeometry x="960.38" y="507.8200000000001" width="80" height="45" as="geometry" />
        </mxCell>
      </root>
    </mxGraphModel>
  </diagram>
  <diagram name="Copy of Page-3" id="iMQemJJzfnMXmCZgHNbq">
    <mxGraphModel dx="1352" dy="768" grid="1" gridSize="10" guides="1" tooltips="1" connect="1" arrows="1" fold="1" page="1" pageScale="1" pageWidth="850" pageHeight="1100" math="0" shadow="0">
      <root>
        <mxCell id="JnszCiMIttQQyjiU4_Za-0" />
        <mxCell id="JnszCiMIttQQyjiU4_Za-1" parent="JnszCiMIttQQyjiU4_Za-0" />
        <mxCell id="xUuQ03ryIi3UnA0_KkXr-0" value="" style="rounded=1;whiteSpace=wrap;html=1;rotation=-90;fillColor=#dae8fc;strokeColor=#6c8ebf;fontColor=#3F5170;fontStyle=1" vertex="1" parent="JnszCiMIttQQyjiU4_Za-1">
          <mxGeometry x="448.2200000000001" y="-369.995" width="168.75" height="999.22" as="geometry" />
        </mxCell>
        <mxCell id="xUuQ03ryIi3UnA0_KkXr-1" value="" style="rounded=1;whiteSpace=wrap;html=1;rotation=-90;fillColor=#dae8fc;strokeColor=#6c8ebf;fontColor=#3F5170;fontStyle=1" vertex="1" parent="JnszCiMIttQQyjiU4_Za-1">
          <mxGeometry x="495.5249999999999" y="30.32000000000005" width="80" height="1000.62" as="geometry" />
        </mxCell>
        <mxCell id="xUuQ03ryIi3UnA0_KkXr-2" value="" style="rounded=1;whiteSpace=wrap;html=1;rotation=-90;fillColor=#dae8fc;strokeColor=#6c8ebf;fontColor=#3F5170;fontStyle=1" vertex="1" parent="JnszCiMIttQQyjiU4_Za-1">
          <mxGeometry x="495.5249999999999" y="-59.680000000000064" width="80" height="1000.62" as="geometry" />
        </mxCell>
        <mxCell id="xUuQ03ryIi3UnA0_KkXr-3" value="" style="rounded=1;whiteSpace=wrap;html=1;rotation=-90;fillColor=#dae8fc;strokeColor=#6c8ebf;fontColor=#3F5170;fontStyle=1" vertex="1" parent="JnszCiMIttQQyjiU4_Za-1">
          <mxGeometry x="448.2749999999999" y="-194.61" width="168.75" height="999.22" as="geometry" />
        </mxCell>
        <mxCell id="xUuQ03ryIi3UnA0_KkXr-4" style="edgeStyle=orthogonalEdgeStyle;rounded=0;orthogonalLoop=1;jettySize=auto;html=1;exitX=0.5;exitY=1;exitDx=0;exitDy=0;entryX=0.5;entryY=0;entryDx=0;entryDy=0;strokeColor=#6C8EBF;" edge="1" parent="JnszCiMIttQQyjiU4_Za-1" source="xUuQ03ryIi3UnA0_KkXr-5" target="xUuQ03ryIi3UnA0_KkXr-7">
          <mxGeometry relative="1" as="geometry" />
        </mxCell>
        <mxCell id="xUuQ03ryIi3UnA0_KkXr-5" value="&lt;div&gt;Titles screened:​&lt;/div&gt;&lt;div&gt;&lt;b&gt;N = 60​&lt;/b&gt;&lt;/div&gt;" style="rounded=0;whiteSpace=wrap;html=1;strokeColor=#6C8EBF;" vertex="1" parent="JnszCiMIttQQyjiU4_Za-1">
          <mxGeometry x="97.08499999999997" y="140.62" width="120" height="60" as="geometry" />
        </mxCell>
        <mxCell id="xUuQ03ryIi3UnA0_KkXr-6" style="edgeStyle=orthogonalEdgeStyle;rounded=0;orthogonalLoop=1;jettySize=auto;html=1;exitX=0.5;exitY=1;exitDx=0;exitDy=0;entryX=0.5;entryY=0;entryDx=0;entryDy=0;strokeColor=#6C8EBF;" edge="1" parent="JnszCiMIttQQyjiU4_Za-1" source="xUuQ03ryIi3UnA0_KkXr-7" target="xUuQ03ryIi3UnA0_KkXr-10">
          <mxGeometry relative="1" as="geometry" />
        </mxCell>
        <mxCell id="xUuQ03ryIi3UnA0_KkXr-7" value="&lt;div&gt;Records after duplicate removal:​&lt;/div&gt;&lt;div&gt;&lt;b&gt;N = 53​&lt;/b&gt;&lt;/div&gt;" style="rounded=0;whiteSpace=wrap;html=1;strokeColor=#6C8EBF;" vertex="1" parent="JnszCiMIttQQyjiU4_Za-1">
          <mxGeometry x="97.08499999999997" y="230.62" width="120" height="60" as="geometry" />
        </mxCell>
        <mxCell id="xUuQ03ryIi3UnA0_KkXr-8" style="edgeStyle=orthogonalEdgeStyle;rounded=0;orthogonalLoop=1;jettySize=auto;html=1;exitX=0.5;exitY=1;exitDx=0;exitDy=0;entryX=0.5;entryY=0;entryDx=0;entryDy=0;strokeColor=#6C8EBF;" edge="1" parent="JnszCiMIttQQyjiU4_Za-1" source="xUuQ03ryIi3UnA0_KkXr-10" target="xUuQ03ryIi3UnA0_KkXr-13">
          <mxGeometry relative="1" as="geometry" />
        </mxCell>
        <mxCell id="xUuQ03ryIi3UnA0_KkXr-9" style="edgeStyle=orthogonalEdgeStyle;rounded=0;orthogonalLoop=1;jettySize=auto;html=1;exitX=1;exitY=0.5;exitDx=0;exitDy=0;entryX=0;entryY=0.5;entryDx=0;entryDy=0;strokeColor=#6C8EBF;" edge="1" parent="JnszCiMIttQQyjiU4_Za-1" source="xUuQ03ryIi3UnA0_KkXr-10" target="xUuQ03ryIi3UnA0_KkXr-14">
          <mxGeometry relative="1" as="geometry" />
        </mxCell>
        <mxCell id="xUuQ03ryIi3UnA0_KkXr-10" value="&lt;div&gt;Abstract screened:​&lt;/div&gt;&lt;div&gt;&lt;b&gt;N = 12​&lt;/b&gt;&lt;/div&gt;" style="rounded=0;whiteSpace=wrap;html=1;strokeColor=#6C8EBF;" vertex="1" parent="JnszCiMIttQQyjiU4_Za-1">
          <mxGeometry x="97.08499999999997" y="320.62" width="120" height="60" as="geometry" />
        </mxCell>
        <mxCell id="xUuQ03ryIi3UnA0_KkXr-11" style="edgeStyle=orthogonalEdgeStyle;rounded=0;orthogonalLoop=1;jettySize=auto;html=1;exitX=0.5;exitY=1;exitDx=0;exitDy=0;entryX=0.5;entryY=0;entryDx=0;entryDy=0;strokeColor=#6C8EBF;" edge="1" parent="JnszCiMIttQQyjiU4_Za-1" source="xUuQ03ryIi3UnA0_KkXr-13">
          <mxGeometry relative="1" as="geometry">
            <mxPoint x="157.08499999999987" y="500.6199999999999" as="targetPoint" />
          </mxGeometry>
        </mxCell>
        <mxCell id="xUuQ03ryIi3UnA0_KkXr-12" style="edgeStyle=orthogonalEdgeStyle;rounded=0;orthogonalLoop=1;jettySize=auto;html=1;exitX=1;exitY=0.5;exitDx=0;exitDy=0;entryX=0;entryY=0.5;entryDx=0;entryDy=0;strokeColor=#6C8EBF;" edge="1" parent="JnszCiMIttQQyjiU4_Za-1" source="xUuQ03ryIi3UnA0_KkXr-13" target="xUuQ03ryIi3UnA0_KkXr-15">
          <mxGeometry relative="1" as="geometry" />
        </mxCell>
        <mxCell id="xUuQ03ryIi3UnA0_KkXr-13" value="&lt;div&gt;Full-text screened:​&lt;/div&gt;&lt;div&gt;&lt;b&gt;N = 56​&lt;/b&gt;&lt;/div&gt;" style="rounded=0;whiteSpace=wrap;html=1;strokeColor=#6C8EBF;" vertex="1" parent="JnszCiMIttQQyjiU4_Za-1">
          <mxGeometry x="97.08499999999997" y="410.6200000000001" width="120" height="60" as="geometry" />
        </mxCell>
        <mxCell id="xUuQ03ryIi3UnA0_KkXr-14" value="&lt;div&gt;Articles excluded:​&lt;/div&gt;&lt;div&gt;&lt;b&gt;N = 270​&lt;/b&gt;&lt;/div&gt;" style="rounded=0;whiteSpace=wrap;html=1;strokeColor=#6C8EBF;" vertex="1" parent="JnszCiMIttQQyjiU4_Za-1">
          <mxGeometry x="257.085" y="320.62" width="120" height="60" as="geometry" />
        </mxCell>
        <mxCell id="xUuQ03ryIi3UnA0_KkXr-15" value="&lt;div&gt;Articles excluded:​&lt;/div&gt;&lt;div&gt;&lt;b&gt;N = 28&lt;/b&gt;&lt;/div&gt;" style="rounded=0;whiteSpace=wrap;html=1;strokeColor=#6C8EBF;" vertex="1" parent="JnszCiMIttQQyjiU4_Za-1">
          <mxGeometry x="257.085" y="410.6200000000001" width="120" height="60" as="geometry" />
        </mxCell>
        <mxCell id="xUuQ03ryIi3UnA0_KkXr-16" value="Eligibility​" style="rounded=1;whiteSpace=wrap;html=1;rotation=-90;fillColor=#dae8fc;strokeColor=#6c8ebf;fontColor=#3F5170;fontStyle=1" vertex="1" parent="JnszCiMIttQQyjiU4_Za-1">
          <mxGeometry x="14.584999999999965" y="418.1200000000001" width="80" height="45" as="geometry" />
        </mxCell>
        <mxCell id="xUuQ03ryIi3UnA0_KkXr-17" value="Included​" style="rounded=1;whiteSpace=wrap;html=1;rotation=-90;fillColor=#dae8fc;strokeColor=#6c8ebf;fontColor=#3F5170;fontStyle=1" vertex="1" parent="JnszCiMIttQQyjiU4_Za-1">
          <mxGeometry x="14.584999999999965" y="508.1200000000001" width="80" height="45" as="geometry" />
        </mxCell>
        <mxCell id="xUuQ03ryIi3UnA0_KkXr-18" value="Identification" style="rounded=1;whiteSpace=wrap;html=1;rotation=-90;fillColor=#dae8fc;strokeColor=#6c8ebf;fontColor=#3F5170;fontStyle=1" vertex="1" parent="JnszCiMIttQQyjiU4_Za-1">
          <mxGeometry x="-30.005000000000038" y="107.08000000000004" width="169.18" height="45" as="geometry" />
        </mxCell>
        <mxCell id="xUuQ03ryIi3UnA0_KkXr-19" value="Screening​" style="rounded=1;whiteSpace=wrap;html=1;rotation=-90;fillColor=#dae8fc;strokeColor=#6c8ebf;fontColor=#3F5170;fontStyle=1" vertex="1" parent="JnszCiMIttQQyjiU4_Za-1">
          <mxGeometry x="-29.79500000000003" y="282.5" width="168.75" height="45" as="geometry" />
        </mxCell>
        <mxCell id="xUuQ03ryIi3UnA0_KkXr-20" style="edgeStyle=orthogonalEdgeStyle;rounded=0;orthogonalLoop=1;jettySize=auto;html=1;exitX=0.5;exitY=1;exitDx=0;exitDy=0;entryX=0.5;entryY=0;entryDx=0;entryDy=0;strokeColor=#6C8EBF;" edge="1" parent="JnszCiMIttQQyjiU4_Za-1" source="xUuQ03ryIi3UnA0_KkXr-21" target="xUuQ03ryIi3UnA0_KkXr-23">
          <mxGeometry relative="1" as="geometry" />
        </mxCell>
        <mxCell id="xUuQ03ryIi3UnA0_KkXr-21" value="&lt;div&gt;Titles screened:​&lt;/div&gt;&lt;div&gt;&lt;b style=&quot;background-color: transparent; color: light-dark(rgb(0, 0, 0), rgb(255, 255, 255));&quot;&gt;N = 410​&lt;/b&gt;&lt;/div&gt;" style="rounded=0;whiteSpace=wrap;html=1;strokeColor=#6C8EBF;" vertex="1" parent="JnszCiMIttQQyjiU4_Za-1">
          <mxGeometry x="406.215" y="140.93000000000006" width="120" height="60" as="geometry" />
        </mxCell>
        <mxCell id="xUuQ03ryIi3UnA0_KkXr-22" style="edgeStyle=orthogonalEdgeStyle;rounded=0;orthogonalLoop=1;jettySize=auto;html=1;exitX=0.5;exitY=1;exitDx=0;exitDy=0;entryX=0.5;entryY=0;entryDx=0;entryDy=0;strokeColor=#6C8EBF;" edge="1" parent="JnszCiMIttQQyjiU4_Za-1" source="xUuQ03ryIi3UnA0_KkXr-23" target="xUuQ03ryIi3UnA0_KkXr-26">
          <mxGeometry relative="1" as="geometry" />
        </mxCell>
        <mxCell id="xUuQ03ryIi3UnA0_KkXr-23" value="&lt;div&gt;Records after duplicate removal:​&lt;/div&gt;&lt;div&gt;&lt;b&gt;N = 153​&lt;/b&gt;&lt;/div&gt;" style="rounded=0;whiteSpace=wrap;html=1;strokeColor=#6C8EBF;" vertex="1" parent="JnszCiMIttQQyjiU4_Za-1">
          <mxGeometry x="406.215" y="230.93000000000006" width="120" height="60" as="geometry" />
        </mxCell>
        <mxCell id="xUuQ03ryIi3UnA0_KkXr-24" style="edgeStyle=orthogonalEdgeStyle;rounded=0;orthogonalLoop=1;jettySize=auto;html=1;exitX=0.5;exitY=1;exitDx=0;exitDy=0;entryX=0.5;entryY=0;entryDx=0;entryDy=0;strokeColor=#6C8EBF;" edge="1" parent="JnszCiMIttQQyjiU4_Za-1" source="xUuQ03ryIi3UnA0_KkXr-26" target="xUuQ03ryIi3UnA0_KkXr-29">
          <mxGeometry relative="1" as="geometry" />
        </mxCell>
        <mxCell id="xUuQ03ryIi3UnA0_KkXr-25" style="edgeStyle=orthogonalEdgeStyle;rounded=0;orthogonalLoop=1;jettySize=auto;html=1;exitX=1;exitY=0.5;exitDx=0;exitDy=0;entryX=0;entryY=0.5;entryDx=0;entryDy=0;strokeColor=#6C8EBF;" edge="1" parent="JnszCiMIttQQyjiU4_Za-1" source="xUuQ03ryIi3UnA0_KkXr-26" target="xUuQ03ryIi3UnA0_KkXr-30">
          <mxGeometry relative="1" as="geometry" />
        </mxCell>
        <mxCell id="xUuQ03ryIi3UnA0_KkXr-26" value="&lt;div&gt;Abstract screened:​&lt;/div&gt;&lt;div&gt;&lt;b&gt;N = 135​&lt;/b&gt;&lt;/div&gt;" style="rounded=0;whiteSpace=wrap;html=1;strokeColor=#6C8EBF;" vertex="1" parent="JnszCiMIttQQyjiU4_Za-1">
          <mxGeometry x="406.215" y="320.93000000000006" width="120" height="60" as="geometry" />
        </mxCell>
        <mxCell id="xUuQ03ryIi3UnA0_KkXr-27" style="edgeStyle=orthogonalEdgeStyle;rounded=0;orthogonalLoop=1;jettySize=auto;html=1;exitX=0.5;exitY=1;exitDx=0;exitDy=0;entryX=0.5;entryY=0;entryDx=0;entryDy=0;strokeColor=#6C8EBF;" edge="1" parent="JnszCiMIttQQyjiU4_Za-1" source="xUuQ03ryIi3UnA0_KkXr-29">
          <mxGeometry relative="1" as="geometry">
            <mxPoint x="466.215" y="500.92999999999984" as="targetPoint" />
          </mxGeometry>
        </mxCell>
        <mxCell id="xUuQ03ryIi3UnA0_KkXr-28" style="edgeStyle=orthogonalEdgeStyle;rounded=0;orthogonalLoop=1;jettySize=auto;html=1;exitX=1;exitY=0.5;exitDx=0;exitDy=0;entryX=0;entryY=0.5;entryDx=0;entryDy=0;strokeColor=#6C8EBF;" edge="1" parent="JnszCiMIttQQyjiU4_Za-1" source="xUuQ03ryIi3UnA0_KkXr-29" target="xUuQ03ryIi3UnA0_KkXr-31">
          <mxGeometry relative="1" as="geometry" />
        </mxCell>
        <mxCell id="xUuQ03ryIi3UnA0_KkXr-29" value="&lt;div&gt;Full-text screened:​&lt;/div&gt;&lt;div&gt;&lt;b&gt;N = 56​&lt;/b&gt;&lt;/div&gt;" style="rounded=0;whiteSpace=wrap;html=1;strokeColor=#6C8EBF;" vertex="1" parent="JnszCiMIttQQyjiU4_Za-1">
          <mxGeometry x="406.215" y="410.93000000000006" width="120" height="60" as="geometry" />
        </mxCell>
        <mxCell id="xUuQ03ryIi3UnA0_KkXr-30" value="&lt;div&gt;Articles excluded:​&lt;/div&gt;&lt;div&gt;&lt;b&gt;N = 270​&lt;/b&gt;&lt;/div&gt;" style="rounded=0;whiteSpace=wrap;html=1;strokeColor=#6C8EBF;" vertex="1" parent="JnszCiMIttQQyjiU4_Za-1">
          <mxGeometry x="566.2149999999999" y="320.93000000000006" width="120" height="60" as="geometry" />
        </mxCell>
        <mxCell id="xUuQ03ryIi3UnA0_KkXr-31" value="&lt;div&gt;Articles excluded:​&lt;/div&gt;&lt;div&gt;&lt;b&gt;N = 28&lt;/b&gt;&lt;/div&gt;" style="rounded=0;whiteSpace=wrap;html=1;strokeColor=#6C8EBF;" vertex="1" parent="JnszCiMIttQQyjiU4_Za-1">
          <mxGeometry x="566.2149999999999" y="410.93000000000006" width="120" height="60" as="geometry" />
        </mxCell>
        <mxCell id="xUuQ03ryIi3UnA0_KkXr-32" style="edgeStyle=orthogonalEdgeStyle;rounded=0;orthogonalLoop=1;jettySize=auto;html=1;exitX=0.5;exitY=1;exitDx=0;exitDy=0;entryX=0.5;entryY=0;entryDx=0;entryDy=0;strokeColor=#6C8EBF;" edge="1" parent="JnszCiMIttQQyjiU4_Za-1" source="xUuQ03ryIi3UnA0_KkXr-33" target="xUuQ03ryIi3UnA0_KkXr-35">
          <mxGeometry relative="1" as="geometry" />
        </mxCell>
        <mxCell id="xUuQ03ryIi3UnA0_KkXr-33" value="&lt;div&gt;Titles screened:​&lt;/div&gt;&lt;div&gt;&lt;b style=&quot;background-color: transparent; color: light-dark(rgb(0, 0, 0), rgb(255, 255, 255));&quot;&gt;N = 410​&lt;/b&gt;&lt;/div&gt;" style="rounded=0;whiteSpace=wrap;html=1;strokeColor=#6C8EBF;" vertex="1" parent="JnszCiMIttQQyjiU4_Za-1">
          <mxGeometry x="714.2150000000001" y="140.93000000000006" width="120" height="60" as="geometry" />
        </mxCell>
        <mxCell id="xUuQ03ryIi3UnA0_KkXr-34" style="edgeStyle=orthogonalEdgeStyle;rounded=0;orthogonalLoop=1;jettySize=auto;html=1;exitX=0.5;exitY=1;exitDx=0;exitDy=0;entryX=0.5;entryY=0;entryDx=0;entryDy=0;strokeColor=#6C8EBF;" edge="1" parent="JnszCiMIttQQyjiU4_Za-1" source="xUuQ03ryIi3UnA0_KkXr-35" target="xUuQ03ryIi3UnA0_KkXr-38">
          <mxGeometry relative="1" as="geometry" />
        </mxCell>
        <mxCell id="xUuQ03ryIi3UnA0_KkXr-35" value="&lt;div&gt;Records after duplicate removal:​&lt;/div&gt;&lt;div&gt;&lt;b&gt;N = 153​&lt;/b&gt;&lt;/div&gt;" style="rounded=0;whiteSpace=wrap;html=1;strokeColor=#6C8EBF;" vertex="1" parent="JnszCiMIttQQyjiU4_Za-1">
          <mxGeometry x="714.2150000000001" y="230.93000000000006" width="120" height="60" as="geometry" />
        </mxCell>
        <mxCell id="xUuQ03ryIi3UnA0_KkXr-36" style="edgeStyle=orthogonalEdgeStyle;rounded=0;orthogonalLoop=1;jettySize=auto;html=1;exitX=0.5;exitY=1;exitDx=0;exitDy=0;entryX=0.5;entryY=0;entryDx=0;entryDy=0;strokeColor=#6C8EBF;" edge="1" parent="JnszCiMIttQQyjiU4_Za-1" source="xUuQ03ryIi3UnA0_KkXr-38" target="xUuQ03ryIi3UnA0_KkXr-41">
          <mxGeometry relative="1" as="geometry" />
        </mxCell>
        <mxCell id="xUuQ03ryIi3UnA0_KkXr-37" style="edgeStyle=orthogonalEdgeStyle;rounded=0;orthogonalLoop=1;jettySize=auto;html=1;exitX=1;exitY=0.5;exitDx=0;exitDy=0;entryX=0;entryY=0.5;entryDx=0;entryDy=0;strokeColor=#6C8EBF;" edge="1" parent="JnszCiMIttQQyjiU4_Za-1" source="xUuQ03ryIi3UnA0_KkXr-38" target="xUuQ03ryIi3UnA0_KkXr-42">
          <mxGeometry relative="1" as="geometry" />
        </mxCell>
        <mxCell id="xUuQ03ryIi3UnA0_KkXr-38" value="&lt;div&gt;Abstract screened:​&lt;/div&gt;&lt;div&gt;&lt;b&gt;N = 135​&lt;/b&gt;&lt;/div&gt;" style="rounded=0;whiteSpace=wrap;html=1;strokeColor=#6C8EBF;" vertex="1" parent="JnszCiMIttQQyjiU4_Za-1">
          <mxGeometry x="714.2150000000001" y="320.93000000000006" width="120" height="60" as="geometry" />
        </mxCell>
        <mxCell id="xUuQ03ryIi3UnA0_KkXr-39" style="edgeStyle=orthogonalEdgeStyle;rounded=0;orthogonalLoop=1;jettySize=auto;html=1;exitX=0.5;exitY=1;exitDx=0;exitDy=0;entryX=0.5;entryY=0;entryDx=0;entryDy=0;strokeColor=#6C8EBF;" edge="1" parent="JnszCiMIttQQyjiU4_Za-1" source="xUuQ03ryIi3UnA0_KkXr-41">
          <mxGeometry relative="1" as="geometry">
            <mxPoint x="774.2149999999999" y="500.92999999999984" as="targetPoint" />
          </mxGeometry>
        </mxCell>
        <mxCell id="xUuQ03ryIi3UnA0_KkXr-40" style="edgeStyle=orthogonalEdgeStyle;rounded=0;orthogonalLoop=1;jettySize=auto;html=1;exitX=1;exitY=0.5;exitDx=0;exitDy=0;entryX=0;entryY=0.5;entryDx=0;entryDy=0;strokeColor=#6C8EBF;" edge="1" parent="JnszCiMIttQQyjiU4_Za-1" source="xUuQ03ryIi3UnA0_KkXr-41" target="xUuQ03ryIi3UnA0_KkXr-43">
          <mxGeometry relative="1" as="geometry" />
        </mxCell>
        <mxCell id="xUuQ03ryIi3UnA0_KkXr-41" value="&lt;div&gt;Full-text screened:​&lt;/div&gt;&lt;div&gt;&lt;b&gt;N = 56​&lt;/b&gt;&lt;/div&gt;" style="rounded=0;whiteSpace=wrap;html=1;strokeColor=#6C8EBF;" vertex="1" parent="JnszCiMIttQQyjiU4_Za-1">
          <mxGeometry x="714.2150000000001" y="410.93000000000006" width="120" height="60" as="geometry" />
        </mxCell>
        <mxCell id="xUuQ03ryIi3UnA0_KkXr-42" value="&lt;div&gt;Articles excluded:​&lt;/div&gt;&lt;div&gt;&lt;b&gt;N = 270​&lt;/b&gt;&lt;/div&gt;" style="rounded=0;whiteSpace=wrap;html=1;strokeColor=#6C8EBF;" vertex="1" parent="JnszCiMIttQQyjiU4_Za-1">
          <mxGeometry x="874.2149999999997" y="320.93000000000006" width="120" height="60" as="geometry" />
        </mxCell>
        <mxCell id="xUuQ03ryIi3UnA0_KkXr-43" value="&lt;div&gt;Articles excluded:​&lt;/div&gt;&lt;div&gt;&lt;b&gt;N = 28&lt;/b&gt;&lt;/div&gt;" style="rounded=0;whiteSpace=wrap;html=1;strokeColor=#6C8EBF;" vertex="1" parent="JnszCiMIttQQyjiU4_Za-1">
          <mxGeometry x="874.2149999999997" y="410.93000000000006" width="120" height="60" as="geometry" />
        </mxCell>
        <mxCell id="xUuQ03ryIi3UnA0_KkXr-44" value="&lt;div&gt;Studies included:​&lt;/div&gt;&lt;div&gt;&lt;b&gt;N = 28​&lt;/b&gt;&lt;/div&gt;" style="rounded=0;whiteSpace=wrap;html=1;strokeColor=#6C8EBF;" vertex="1" parent="JnszCiMIttQQyjiU4_Za-1">
          <mxGeometry x="406.215" y="600.9300000000001" width="120" height="60" as="geometry" />
        </mxCell>
        <mxCell id="xUuQ03ryIi3UnA0_KkXr-45" style="edgeStyle=orthogonalEdgeStyle;rounded=0;orthogonalLoop=1;jettySize=auto;html=1;exitX=0.5;exitY=1;exitDx=0;exitDy=0;" edge="1" parent="JnszCiMIttQQyjiU4_Za-1" source="xUuQ03ryIi3UnA0_KkXr-46" target="xUuQ03ryIi3UnA0_KkXr-5">
          <mxGeometry relative="1" as="geometry" />
        </mxCell>
        <mxCell id="xUuQ03ryIi3UnA0_KkXr-46" value="&lt;div&gt;Records identified:​&lt;/div&gt;&lt;div&gt;&lt;b&gt;N = 200​&lt;/b&gt;&lt;/div&gt;" style="rounded=0;whiteSpace=wrap;html=1;strokeColor=#6C8EBF;" vertex="1" parent="JnszCiMIttQQyjiU4_Za-1">
          <mxGeometry x="97.08499999999997" y="50" width="120" height="60" as="geometry" />
        </mxCell>
        <mxCell id="xUuQ03ryIi3UnA0_KkXr-47" style="edgeStyle=orthogonalEdgeStyle;rounded=0;orthogonalLoop=1;jettySize=auto;html=1;exitX=0.5;exitY=1;exitDx=0;exitDy=0;entryX=0.5;entryY=0;entryDx=0;entryDy=0;" edge="1" parent="JnszCiMIttQQyjiU4_Za-1" source="xUuQ03ryIi3UnA0_KkXr-48" target="xUuQ03ryIi3UnA0_KkXr-21">
          <mxGeometry relative="1" as="geometry" />
        </mxCell>
        <mxCell id="xUuQ03ryIi3UnA0_KkXr-48" value="&lt;div&gt;Records identified:​&lt;/div&gt;&lt;div&gt;&lt;b style=&quot;background-color: transparent; color: light-dark(rgb(0, 0, 0), rgb(255, 255, 255));&quot;&gt;N = 410​&lt;/b&gt;&lt;/div&gt;" style="rounded=0;whiteSpace=wrap;html=1;strokeColor=#6C8EBF;" vertex="1" parent="JnszCiMIttQQyjiU4_Za-1">
          <mxGeometry x="406.215" y="50" width="120" height="60" as="geometry" />
        </mxCell>
        <mxCell id="xUuQ03ryIi3UnA0_KkXr-49" style="edgeStyle=orthogonalEdgeStyle;rounded=0;orthogonalLoop=1;jettySize=auto;html=1;exitX=0.5;exitY=1;exitDx=0;exitDy=0;entryX=0.5;entryY=0;entryDx=0;entryDy=0;" edge="1" parent="JnszCiMIttQQyjiU4_Za-1" source="xUuQ03ryIi3UnA0_KkXr-50" target="xUuQ03ryIi3UnA0_KkXr-33">
          <mxGeometry relative="1" as="geometry" />
        </mxCell>
        <mxCell id="xUuQ03ryIi3UnA0_KkXr-50" value="&lt;div&gt;Records identified:​&lt;/div&gt;&lt;div&gt;&lt;b style=&quot;background-color: transparent; color: light-dark(rgb(0, 0, 0), rgb(255, 255, 255));&quot;&gt;N = 410​&lt;/b&gt;&lt;/div&gt;" style="rounded=0;whiteSpace=wrap;html=1;strokeColor=#6C8EBF;" vertex="1" parent="JnszCiMIttQQyjiU4_Za-1">
          <mxGeometry x="714.2149999999999" y="50" width="120" height="60" as="geometry" />
        </mxCell>
      </root>
    </mxGraphModel>
  </diagram>
  <diagram name="Copy of Page-2" id="OUataov0soI82jAxTU6k">
    <mxGraphModel dx="1352" dy="768" grid="1" gridSize="10" guides="1" tooltips="1" connect="1" arrows="1" fold="1" page="1" pageScale="1" pageWidth="850" pageHeight="1100" math="0" shadow="0">
      <root>
        <mxCell id="EhwV6nNwk-8knnu3l7yr-0" />
        <mxCell id="EhwV6nNwk-8knnu3l7yr-1" parent="EhwV6nNwk-8knnu3l7yr-0" />
        <mxCell id="EhwV6nNwk-8knnu3l7yr-2" value="Eligibility​" style="rounded=1;whiteSpace=wrap;html=1;rotation=-90;fillColor=#dae8fc;strokeColor=#6c8ebf;fontColor=#3F5170;fontStyle=1" vertex="1" parent="EhwV6nNwk-8knnu3l7yr-1">
          <mxGeometry x="41.57" y="559.22" width="115.62" height="45" as="geometry" />
        </mxCell>
        <mxCell id="EhwV6nNwk-8knnu3l7yr-3" value="Included​" style="rounded=1;whiteSpace=wrap;html=1;rotation=-90;fillColor=#dae8fc;strokeColor=#6c8ebf;fontColor=#3F5170;fontStyle=1" vertex="1" parent="EhwV6nNwk-8knnu3l7yr-1">
          <mxGeometry x="39.68" y="689.19" width="119.37" height="45" as="geometry" />
        </mxCell>
        <mxCell id="EhwV6nNwk-8knnu3l7yr-4" value="Identification" style="rounded=1;whiteSpace=wrap;html=1;rotation=-90;fillColor=#dae8fc;strokeColor=#6c8ebf;fontColor=#3F5170;fontStyle=1" vertex="1" parent="EhwV6nNwk-8knnu3l7yr-1">
          <mxGeometry x="-25.47" y="104.21" width="249.68" height="45" as="geometry" />
        </mxCell>
        <mxCell id="EhwV6nNwk-8knnu3l7yr-5" value="Screening​" style="rounded=1;whiteSpace=wrap;html=1;rotation=-90;fillColor=#dae8fc;strokeColor=#6c8ebf;fontColor=#3F5170;fontStyle=1" vertex="1" parent="EhwV6nNwk-8knnu3l7yr-1">
          <mxGeometry x="-25.86" y="364.47" width="250.47" height="45" as="geometry" />
        </mxCell>
        <mxCell id="EhwV6nNwk-8knnu3l7yr-6" style="edgeStyle=orthogonalEdgeStyle;rounded=0;orthogonalLoop=1;jettySize=auto;html=1;exitX=0.5;exitY=1;exitDx=0;exitDy=0;entryX=0.5;entryY=0;entryDx=0;entryDy=0;" edge="1" parent="EhwV6nNwk-8knnu3l7yr-1" source="EhwV6nNwk-8knnu3l7yr-8" target="EhwV6nNwk-8knnu3l7yr-16">
          <mxGeometry relative="1" as="geometry" />
        </mxCell>
        <mxCell id="EhwV6nNwk-8knnu3l7yr-7" style="edgeStyle=orthogonalEdgeStyle;rounded=0;orthogonalLoop=1;jettySize=auto;html=1;exitX=1;exitY=0.5;exitDx=0;exitDy=0;entryX=0;entryY=0.5;entryDx=0;entryDy=0;" edge="1" parent="EhwV6nNwk-8knnu3l7yr-1" source="EhwV6nNwk-8knnu3l7yr-8" target="EhwV6nNwk-8knnu3l7yr-22">
          <mxGeometry relative="1" as="geometry" />
        </mxCell>
        <mxCell id="EhwV6nNwk-8knnu3l7yr-8" value="&lt;span style=&quot;background-color: transparent; color: light-dark(rgb(0, 0, 0), rgb(255, 255, 255));&quot;&gt;Records after duplicate removal:​&lt;/span&gt;&lt;br&gt;&lt;blockquote style=&quot;margin: 0 0 0 40px; border: none; padding: 0px;&quot;&gt;&lt;b style=&quot;background-color: transparent; color: light-dark(rgb(0, 0, 0), rgb(255, 255, 255));&quot;&gt;Round Zero = 53&lt;br&gt;&lt;/b&gt;&lt;b style=&quot;background-color: transparent; color: light-dark(rgb(0, 0, 0), rgb(255, 255, 255));&quot;&gt;Round One&amp;nbsp; = ​19&lt;/b&gt;&lt;div style=&quot;&quot;&gt;&lt;b&gt;Round Two&amp;nbsp; = 63&lt;/b&gt;&lt;/div&gt;&lt;/blockquote&gt;" style="rounded=0;whiteSpace=wrap;html=1;strokeColor=#6C8EBF;align=left;spacingLeft=12;" vertex="1" parent="EhwV6nNwk-8knnu3l7yr-1">
          <mxGeometry x="150" y="270.63" width="178.13" height="99.37" as="geometry" />
        </mxCell>
        <mxCell id="EhwV6nNwk-8knnu3l7yr-9" style="edgeStyle=orthogonalEdgeStyle;rounded=0;orthogonalLoop=1;jettySize=auto;html=1;exitX=0.5;exitY=1;exitDx=0;exitDy=0;entryX=0.5;entryY=0;entryDx=0;entryDy=0;" edge="1" parent="EhwV6nNwk-8knnu3l7yr-1" source="EhwV6nNwk-8knnu3l7yr-10" target="EhwV6nNwk-8knnu3l7yr-13">
          <mxGeometry relative="1" as="geometry" />
        </mxCell>
        <mxCell id="EhwV6nNwk-8knnu3l7yr-10" value="&lt;span style=&quot;background-color: transparent; color: light-dark(rgb(0, 0, 0), rgb(255, 255, 255));&quot;&gt;Records Identified:​&lt;/span&gt;&lt;br&gt;&lt;blockquote style=&quot;margin: 0 0 0 40px; border: none; padding: 0px;&quot;&gt;&lt;b style=&quot;background-color: transparent; color: light-dark(rgb(0, 0, 0), rgb(255, 255, 255));&quot;&gt;Round Zero = 200&lt;br&gt;&lt;/b&gt;&lt;b style=&quot;background-color: transparent; color: light-dark(rgb(0, 0, 0), rgb(255, 255, 255));&quot;&gt;Round One&amp;nbsp; = ​37&lt;/b&gt;&lt;div style=&quot;&quot;&gt;&lt;b&gt;Round Two&amp;nbsp; = 173&lt;/b&gt;&lt;/div&gt;&lt;/blockquote&gt;" style="rounded=0;whiteSpace=wrap;html=1;strokeColor=#6C8EBF;align=left;spacingLeft=12;" vertex="1" parent="EhwV6nNwk-8knnu3l7yr-1">
          <mxGeometry x="150" y="10.32" width="178.13" height="99.37" as="geometry" />
        </mxCell>
        <mxCell id="EhwV6nNwk-8knnu3l7yr-11" style="edgeStyle=orthogonalEdgeStyle;rounded=0;orthogonalLoop=1;jettySize=auto;html=1;exitX=0.5;exitY=1;exitDx=0;exitDy=0;entryX=0.5;entryY=0;entryDx=0;entryDy=0;" edge="1" parent="EhwV6nNwk-8knnu3l7yr-1" source="EhwV6nNwk-8knnu3l7yr-13" target="EhwV6nNwk-8knnu3l7yr-8">
          <mxGeometry relative="1" as="geometry" />
        </mxCell>
        <mxCell id="EhwV6nNwk-8knnu3l7yr-12" style="edgeStyle=orthogonalEdgeStyle;rounded=0;orthogonalLoop=1;jettySize=auto;html=1;exitX=1;exitY=0.5;exitDx=0;exitDy=0;entryX=0;entryY=0.5;entryDx=0;entryDy=0;" edge="1" parent="EhwV6nNwk-8knnu3l7yr-1" source="EhwV6nNwk-8knnu3l7yr-13" target="EhwV6nNwk-8knnu3l7yr-21">
          <mxGeometry relative="1" as="geometry" />
        </mxCell>
        <mxCell id="EhwV6nNwk-8knnu3l7yr-13" value="&lt;span style=&quot;background-color: transparent; color: light-dark(rgb(0, 0, 0), rgb(255, 255, 255));&quot;&gt;Title screened:​&lt;/span&gt;&lt;br&gt;&lt;blockquote style=&quot;margin: 0 0 0 40px; border: none; padding: 0px;&quot;&gt;&lt;b style=&quot;background-color: transparent; color: light-dark(rgb(0, 0, 0), rgb(255, 255, 255));&quot;&gt;Round Zero = 60&lt;br&gt;&lt;/b&gt;&lt;b style=&quot;background-color: transparent; color: light-dark(rgb(0, 0, 0), rgb(255, 255, 255));&quot;&gt;Round One&amp;nbsp; = ​19&lt;/b&gt;&lt;div style=&quot;&quot;&gt;&lt;b&gt;Round Two&amp;nbsp; = 74&lt;/b&gt;&lt;/div&gt;&lt;/blockquote&gt;" style="rounded=0;whiteSpace=wrap;html=1;strokeColor=#6C8EBF;align=left;spacingLeft=12;" vertex="1" parent="EhwV6nNwk-8knnu3l7yr-1">
          <mxGeometry x="150" y="140" width="178.13" height="99.37" as="geometry" />
        </mxCell>
        <mxCell id="EhwV6nNwk-8knnu3l7yr-14" style="edgeStyle=orthogonalEdgeStyle;rounded=0;orthogonalLoop=1;jettySize=auto;html=1;exitX=0.5;exitY=1;exitDx=0;exitDy=0;entryX=0.5;entryY=0;entryDx=0;entryDy=0;" edge="1" parent="EhwV6nNwk-8knnu3l7yr-1" source="EhwV6nNwk-8knnu3l7yr-16" target="EhwV6nNwk-8knnu3l7yr-19">
          <mxGeometry relative="1" as="geometry" />
        </mxCell>
        <mxCell id="EhwV6nNwk-8knnu3l7yr-15" style="edgeStyle=orthogonalEdgeStyle;rounded=0;orthogonalLoop=1;jettySize=auto;html=1;exitX=1;exitY=0.5;exitDx=0;exitDy=0;entryX=0;entryY=0.5;entryDx=0;entryDy=0;" edge="1" parent="EhwV6nNwk-8knnu3l7yr-1" source="EhwV6nNwk-8knnu3l7yr-16" target="EhwV6nNwk-8knnu3l7yr-23">
          <mxGeometry relative="1" as="geometry" />
        </mxCell>
        <mxCell id="EhwV6nNwk-8knnu3l7yr-16" value="&lt;span style=&quot;background-color: transparent; color: light-dark(rgb(0, 0, 0), rgb(255, 255, 255));&quot;&gt;Abstract screened:​&lt;/span&gt;&lt;br&gt;&lt;blockquote style=&quot;margin: 0 0 0 40px; border: none; padding: 0px;&quot;&gt;&lt;b style=&quot;background-color: transparent; color: light-dark(rgb(0, 0, 0), rgb(255, 255, 255));&quot;&gt;Round Zero = 12&lt;br&gt;&lt;/b&gt;&lt;b style=&quot;background-color: transparent; color: light-dark(rgb(0, 0, 0), rgb(255, 255, 255));&quot;&gt;Round One&amp;nbsp; = ​15&lt;/b&gt;&lt;div style=&quot;&quot;&gt;&lt;b&gt;Round Two&amp;nbsp; = 29&lt;/b&gt;&lt;/div&gt;&lt;/blockquote&gt;" style="rounded=0;whiteSpace=wrap;html=1;strokeColor=#6C8EBF;align=left;spacingLeft=12;" vertex="1" parent="EhwV6nNwk-8knnu3l7yr-1">
          <mxGeometry x="150" y="400.63" width="178.13" height="99.37" as="geometry" />
        </mxCell>
        <mxCell id="EhwV6nNwk-8knnu3l7yr-17" style="edgeStyle=orthogonalEdgeStyle;rounded=0;orthogonalLoop=1;jettySize=auto;html=1;exitX=0.5;exitY=1;exitDx=0;exitDy=0;entryX=0.5;entryY=0;entryDx=0;entryDy=0;" edge="1" parent="EhwV6nNwk-8knnu3l7yr-1" source="EhwV6nNwk-8knnu3l7yr-19" target="EhwV6nNwk-8knnu3l7yr-20">
          <mxGeometry relative="1" as="geometry" />
        </mxCell>
        <mxCell id="EhwV6nNwk-8knnu3l7yr-18" style="edgeStyle=orthogonalEdgeStyle;rounded=0;orthogonalLoop=1;jettySize=auto;html=1;exitX=1;exitY=0.5;exitDx=0;exitDy=0;entryX=0;entryY=0.5;entryDx=0;entryDy=0;" edge="1" parent="EhwV6nNwk-8knnu3l7yr-1" source="EhwV6nNwk-8knnu3l7yr-19" target="EhwV6nNwk-8knnu3l7yr-24">
          <mxGeometry relative="1" as="geometry" />
        </mxCell>
        <mxCell id="EhwV6nNwk-8knnu3l7yr-19" value="&lt;span style=&quot;background-color: transparent; color: light-dark(rgb(0, 0, 0), rgb(255, 255, 255));&quot;&gt;Full-text screened:​&lt;/span&gt;&lt;br&gt;&lt;blockquote style=&quot;margin: 0 0 0 40px; border: none; padding: 0px;&quot;&gt;&lt;b style=&quot;background-color: transparent; color: light-dark(rgb(0, 0, 0), rgb(255, 255, 255));&quot;&gt;Round Zero = 3&lt;br&gt;&lt;/b&gt;&lt;b style=&quot;background-color: transparent; color: light-dark(rgb(0, 0, 0), rgb(255, 255, 255));&quot;&gt;Round One&amp;nbsp; = ​9&lt;/b&gt;&lt;div style=&quot;&quot;&gt;&lt;b&gt;Round Two&amp;nbsp; = 16&lt;/b&gt;&lt;/div&gt;&lt;/blockquote&gt;" style="rounded=0;whiteSpace=wrap;html=1;strokeColor=#6C8EBF;align=left;spacingLeft=12;" vertex="1" parent="EhwV6nNwk-8knnu3l7yr-1">
          <mxGeometry x="150" y="532.33" width="178.13" height="99.37" as="geometry" />
        </mxCell>
        <mxCell id="EhwV6nNwk-8knnu3l7yr-20" value="&lt;span style=&quot;background-color: transparent; color: light-dark(rgb(0, 0, 0), rgb(255, 255, 255));&quot;&gt;Studies included:​&lt;/span&gt;&lt;br&gt;&lt;b&gt;N = 28&lt;/b&gt;" style="rounded=0;whiteSpace=wrap;html=1;strokeColor=#6C8EBF;align=center;spacingLeft=12;" vertex="1" parent="EhwV6nNwk-8knnu3l7yr-1">
          <mxGeometry x="150" y="662.01" width="178.13" height="99.37" as="geometry" />
        </mxCell>
        <mxCell id="EhwV6nNwk-8knnu3l7yr-21" value="&lt;span style=&quot;background-color: transparent; color: light-dark(rgb(0, 0, 0), rgb(255, 255, 255));&quot;&gt;Articles excluded:​&lt;/span&gt;&lt;br&gt;&lt;blockquote style=&quot;margin: 0 0 0 40px; border: none; padding: 0px;&quot;&gt;&lt;b style=&quot;background-color: transparent; color: light-dark(rgb(0, 0, 0), rgb(255, 255, 255));&quot;&gt;Round Zero = 140&lt;br&gt;&lt;/b&gt;&lt;b style=&quot;background-color: transparent; color: light-dark(rgb(0, 0, 0), rgb(255, 255, 255));&quot;&gt;Round One&amp;nbsp; = ​18&lt;/b&gt;&lt;div style=&quot;&quot;&gt;&lt;b&gt;Round Two&amp;nbsp; = 99&lt;/b&gt;&lt;/div&gt;&lt;/blockquote&gt;" style="rounded=0;whiteSpace=wrap;html=1;strokeColor=#6C8EBF;align=left;spacingLeft=12;" vertex="1" parent="EhwV6nNwk-8knnu3l7yr-1">
          <mxGeometry x="360" y="140" width="178.13" height="99.37" as="geometry" />
        </mxCell>
        <mxCell id="EhwV6nNwk-8knnu3l7yr-22" value="&lt;span style=&quot;background-color: transparent; color: light-dark(rgb(0, 0, 0), rgb(255, 255, 255));&quot;&gt;Articles excluded:​&lt;/span&gt;&lt;br&gt;&lt;blockquote style=&quot;margin: 0 0 0 40px; border: none; padding: 0px;&quot;&gt;&lt;b style=&quot;background-color: transparent; color: light-dark(rgb(0, 0, 0), rgb(255, 255, 255));&quot;&gt;Round Zero = 7&lt;br&gt;&lt;/b&gt;&lt;b style=&quot;background-color: transparent; color: light-dark(rgb(0, 0, 0), rgb(255, 255, 255));&quot;&gt;Round One&amp;nbsp; = ​0&lt;/b&gt;&lt;div style=&quot;&quot;&gt;&lt;b&gt;Round Two&amp;nbsp; = 11&lt;/b&gt;&lt;/div&gt;&lt;/blockquote&gt;" style="rounded=0;whiteSpace=wrap;html=1;strokeColor=#6C8EBF;align=left;spacingLeft=12;" vertex="1" parent="EhwV6nNwk-8knnu3l7yr-1">
          <mxGeometry x="360" y="270.63" width="178.13" height="99.37" as="geometry" />
        </mxCell>
        <mxCell id="EhwV6nNwk-8knnu3l7yr-23" value="&lt;span style=&quot;background-color: transparent; color: light-dark(rgb(0, 0, 0), rgb(255, 255, 255));&quot;&gt;Articles excluded:​&lt;/span&gt;&lt;br&gt;&lt;blockquote style=&quot;margin: 0 0 0 40px; border: none; padding: 0px;&quot;&gt;&lt;b style=&quot;background-color: transparent; color: light-dark(rgb(0, 0, 0), rgb(255, 255, 255));&quot;&gt;Round Zero = 7&lt;br&gt;&lt;/b&gt;&lt;b style=&quot;background-color: transparent; color: light-dark(rgb(0, 0, 0), rgb(255, 255, 255));&quot;&gt;Round One&amp;nbsp; = ​0&lt;/b&gt;&lt;div style=&quot;&quot;&gt;&lt;b&gt;Round Two&amp;nbsp; = 11&lt;/b&gt;&lt;/div&gt;&lt;/blockquote&gt;" style="rounded=0;whiteSpace=wrap;html=1;strokeColor=#6C8EBF;align=left;spacingLeft=12;" vertex="1" parent="EhwV6nNwk-8knnu3l7yr-1">
          <mxGeometry x="360" y="400.63" width="178.13" height="99.37" as="geometry" />
        </mxCell>
        <mxCell id="EhwV6nNwk-8knnu3l7yr-24" value="&lt;span style=&quot;background-color: transparent; color: light-dark(rgb(0, 0, 0), rgb(255, 255, 255));&quot;&gt;Articles excluded:​&lt;/span&gt;&lt;br&gt;&lt;blockquote style=&quot;margin: 0 0 0 40px; border: none; padding: 0px;&quot;&gt;&lt;b style=&quot;background-color: transparent; color: light-dark(rgb(0, 0, 0), rgb(255, 255, 255));&quot;&gt;Round Zero = 7&lt;br&gt;&lt;/b&gt;&lt;b style=&quot;background-color: transparent; color: light-dark(rgb(0, 0, 0), rgb(255, 255, 255));&quot;&gt;Round One&amp;nbsp; = ​0&lt;/b&gt;&lt;div style=&quot;&quot;&gt;&lt;b&gt;Round Two&amp;nbsp; = 11&lt;/b&gt;&lt;/div&gt;&lt;/blockquote&gt;" style="rounded=0;whiteSpace=wrap;html=1;strokeColor=#6C8EBF;align=left;spacingLeft=12;" vertex="1" parent="EhwV6nNwk-8knnu3l7yr-1">
          <mxGeometry x="360" y="532.33" width="178.13" height="99.37" as="geometry" />
        </mxCell>
      </root>
    </mxGraphModel>
  </diagram>
  <diagram id="UOu1JKeJOqPkIjv8T1YB" name="Table">
    <mxGraphModel dx="1352" dy="768" grid="1" gridSize="10" guides="1" tooltips="1" connect="1" arrows="1" fold="1" page="1" pageScale="1" pageWidth="850" pageHeight="1100" math="0" shadow="0">
      <root>
        <mxCell id="0" />
        <mxCell id="1" parent="0" />
        <mxCell id="v8sCv5EMkrDWYCcGQhSV-1" value="&lt;table id=&quot;225dd452-f0b4-80bd-a34d-f774af92e4d0&quot; class=&quot;simple-table&quot;&gt;&lt;thead class=&quot;simple-table-header&quot;&gt;&lt;tr id=&quot;225dd452-f0b4-80e5-af0a-c9a55a5674e0&quot;&gt;&lt;th id=&quot;j==P&quot; class=&quot;simple-table-header-color simple-table-header&quot; style=&quot;width:101px&quot;&gt;&lt;/th&gt;&lt;th id=&quot;]QvS&quot; class=&quot;simple-table-header-color simple-table-header&quot; style=&quot;width:99px&quot;&gt;&lt;strong&gt;Search&lt;/strong&gt;&lt;/th&gt;&lt;th id=&quot;&gt;:l`&quot; class=&quot;simple-table-header-color simple-table-header&quot; style=&quot;width:96px&quot;&gt;&lt;strong&gt;Title&lt;/strong&gt;&lt;/th&gt;&lt;th id=&quot;X:El&quot; class=&quot;simple-table-header-color simple-table-header&quot; style=&quot;width:102px&quot;&gt;&lt;strong&gt;Duplication&lt;/strong&gt;&lt;/th&gt;&lt;th id=&quot;Z\G&gt;&quot; class=&quot;simple-table-header-color simple-table-header&quot; style=&quot;width:96px&quot;&gt;&lt;strong&gt;Abstract&lt;/strong&gt;&lt;/th&gt;&lt;th id=&quot;VLGW&quot; class=&quot;simple-table-header-color simple-table-header&quot; style=&quot;width:101px&quot;&gt;&lt;strong&gt;Full-Text&lt;/strong&gt;&lt;/th&gt;&lt;/tr&gt;&lt;/thead&gt;&lt;tbody&gt;&lt;tr id=&quot;225dd452-f0b4-8098-a91f-f1992e0fcb15&quot;&gt;&lt;th id=&quot;j==P&quot; class=&quot;simple-table-header-color simple-table-header&quot; style=&quot;width:101px&quot;&gt;Initilize&lt;/th&gt;&lt;td id=&quot;]QvS&quot; class=&quot;&quot; style=&quot;width:99px&quot;&gt;200&lt;/td&gt;&lt;td id=&quot;&gt;:l`&quot; class=&quot;&quot; style=&quot;width:96px&quot;&gt;60&lt;/td&gt;&lt;td id=&quot;X:El&quot; class=&quot;&quot; style=&quot;width:102px&quot;&gt;53&lt;/td&gt;&lt;td id=&quot;Z\G&gt;&quot; class=&quot;&quot; style=&quot;width:96px&quot;&gt;12&lt;/td&gt;&lt;td id=&quot;VLGW&quot; class=&quot;&quot; style=&quot;width:101px&quot;&gt;3&lt;/td&gt;&lt;/tr&gt;&lt;tr id=&quot;225dd452-f0b4-804f-b2b8-f4dbb2c74938&quot;&gt;&lt;th id=&quot;j==P&quot; class=&quot;simple-table-header-color simple-table-header&quot; style=&quot;width:101px&quot;&gt;Round 1&lt;/th&gt;&lt;td id=&quot;]QvS&quot; class=&quot;&quot; style=&quot;width:99px&quot;&gt;37&lt;/td&gt;&lt;td id=&quot;&gt;:l`&quot; class=&quot;&quot; style=&quot;width:96px&quot;&gt;19&lt;/td&gt;&lt;td id=&quot;X:El&quot; class=&quot;&quot; style=&quot;width:102px&quot;&gt;19&lt;/td&gt;&lt;td id=&quot;Z\G&gt;&quot; class=&quot;&quot; style=&quot;width:96px&quot;&gt;15&lt;/td&gt;&lt;td id=&quot;VLGW&quot; class=&quot;&quot; style=&quot;width:101px&quot;&gt;9&lt;/td&gt;&lt;/tr&gt;&lt;tr id=&quot;225dd452-f0b4-80f6-8a84-c93764402368&quot;&gt;&lt;th id=&quot;j==P&quot; class=&quot;simple-table-header-color simple-table-header&quot; style=&quot;width:101px&quot;&gt;Round 2&lt;/th&gt;&lt;td id=&quot;]QvS&quot; class=&quot;&quot; style=&quot;width:99px&quot;&gt;173&lt;/td&gt;&lt;td id=&quot;&gt;:l`&quot; class=&quot;&quot; style=&quot;width:96px&quot;&gt;74&lt;/td&gt;&lt;td id=&quot;X:El&quot; class=&quot;&quot; style=&quot;width:102px&quot;&gt;63&lt;/td&gt;&lt;td id=&quot;Z\G&gt;&quot; class=&quot;&quot; style=&quot;width:96px&quot;&gt;29&lt;/td&gt;&lt;td id=&quot;VLGW&quot; class=&quot;&quot; style=&quot;width:101px&quot;&gt;16&lt;/td&gt;&lt;/tr&gt;&lt;tr id=&quot;225dd452-f0b4-8037-bac5-c785b006c7a8&quot;&gt;&lt;th id=&quot;j==P&quot; class=&quot;block-color-gray_background simple-table-header&quot; style=&quot;width:101px&quot;&gt;&lt;strong&gt;Total&lt;/strong&gt;&lt;/th&gt;&lt;td id=&quot;]QvS&quot; class=&quot;block-color-gray_background&quot; style=&quot;width:99px&quot;&gt;410&lt;/td&gt;&lt;td id=&quot;&gt;:l`&quot; class=&quot;block-color-gray_background&quot; style=&quot;width:96px&quot;&gt;153&lt;/td&gt;&lt;td id=&quot;X:El&quot; class=&quot;block-color-gray_background&quot; style=&quot;width:102px&quot;&gt;135&lt;/td&gt;&lt;td id=&quot;Z\G&gt;&quot; class=&quot;block-color-gray_background&quot; style=&quot;width:96px&quot;&gt;56&lt;/td&gt;&lt;td id=&quot;VLGW&quot; class=&quot;block-color-gray_background&quot; style=&quot;width:101px&quot;&gt;28&lt;/td&gt;&lt;/tr&gt;&lt;/tbody&gt;&lt;/table&gt;" style="text;whiteSpace=wrap;html=1;fontSize=18;" vertex="1" parent="1">
          <mxGeometry x="110" y="130" width="660" height="160" as="geometry" />
        </mxCell>
      </root>
    </mxGraphModel>
  </diagram>
</mxfile>
